<svg width="96" height="86" viewBox="0 0 96 86" fill="none" xmlns="http://www.w3.org/2000/svg">
<path d="M63.6716 25.5693L84.8527 38.8249L88.7099 50.5927L70.4387 45.3175L63.6716 25.5693Z" fill="#6D6D93"/>
<path d="M88.71 68.8531H70.4387V45.3853L88.71 50.5928V68.8531Z" fill="#C1C1C1"/>
<path d="M28.6856 73.79L21.1065 17.7918C20.9711 16.845 20.1591 16.1011 19.2117 16.1011H15.4221C14.4747 16.1011 13.7303 16.7774 13.5273 17.7242L4.05329 73.7224C3.85027 74.8045 4.59466 75.7513 5.60973 75.9542C5.6774 75.9542 5.81274 75.9542 5.94808 75.9542H26.7908C27.8059 75.9542 28.6856 75.075 28.6856 73.9929C28.6856 73.9929 28.6856 73.8576 28.6856 73.79ZM20.9711 45.1146H12.7829L14.0686 37.4047H19.8884L20.9711 45.1146ZM17.0462 20.0237H17.5875L18.1289 23.8786H16.3695L17.0462 20.0237ZM15.6927 27.7335H18.6026L19.4147 33.5498H14.7454L15.6927 27.7335ZM8.24891 72.0992L12.1062 49.0372H21.4448L24.5577 72.1669H8.24891V72.0992Z" fill="#D0D0D0"/>
<path d="M16.9109 72.4375V40.6511L23.678 27.666L43.0997 22.5938L62.5214 27.666L69.2885 40.6511V72.4375H16.9109Z" fill="#D8D8D8"/>
<path d="M23.3396 28.8158L16.5725 41.8685V73.6549H20.9035V42.883L31.1895 26.8545L23.3396 28.8158Z" fill="#B6B6B6"/>
<path d="M32.8807 15.5601L30.6476 8.18839L19.3465 13.6665L21.2413 1.08717L13.7298 0.951904L15.3539 13.5988L4.18812 7.85023L1.75195 15.222L14.0005 17.5214L5.20319 26.5839L11.2936 31.1828L17.2487 19.9561L22.9331 31.3181L29.0911 26.8544L20.5646 17.589L32.8807 15.5601Z" fill="#ABAACB"/>
<path d="M43.0316 23.8112L61.5735 28.6806L67.9346 40.9217V71.2203H18.1285V40.9217L24.4896 28.6806L43.0316 23.8112ZM43.0316 21.3088L22.7979 26.584L15.6924 40.3131V73.5873H70.4384V40.3131L63.2653 26.584L43.0316 21.3088Z" fill="#323063"/>
<path d="M48.987 33.2117H37.0769V45.1147H48.987V33.2117Z" fill="white"/>
<path d="M58.5283 68.8529V53.3655H27.6025V68.8529H15.6924V74.8044H70.4384V68.8529H58.5283Z" fill="#E7E7E7"/>
<path d="M44.7237 39.0954L49.8667 33.9555C50.3404 33.4821 50.3404 32.7381 49.8667 32.2647C49.393 31.7913 48.6486 31.7913 48.1749 32.2647L43.0319 37.4723L37.8889 32.3324C37.4152 31.8589 36.6708 31.8589 36.1971 32.3324C35.7234 32.8058 35.7234 33.5497 36.1971 34.0231L41.3401 39.1631L36.2647 44.2353C35.791 44.7088 35.791 45.4527 36.2647 45.9261C36.4678 46.129 36.8061 46.2643 37.0768 46.2643C37.3475 46.2643 37.6858 46.129 37.8889 45.9261L43.0319 40.7862L48.1749 45.9261C48.3779 46.129 48.7163 46.2643 48.9869 46.2643C49.2576 46.2643 49.596 46.129 49.799 45.9261C50.2727 45.4527 50.2727 44.7088 49.799 44.2353L44.7237 39.0954Z" fill="#323063"/>
<path d="M48.9874 46.2644H37.0772C36.4005 46.2644 35.8591 45.7234 35.8591 45.0471V33.2117C35.8591 32.5354 36.4005 31.9944 37.0772 31.9944H48.9874C49.6641 31.9944 50.2055 32.5354 50.2055 33.2117V45.1147C50.2055 45.7234 49.6641 46.2644 48.9874 46.2644ZM38.2953 43.8974H47.837V34.3615H38.2953V43.8974Z" fill="#323063"/>
<path d="M59.7466 74.8045V54.583C60.4233 54.583 60.9647 54.0419 60.9647 53.3656V52.1483C60.9647 51.472 60.4233 50.9309 59.7466 50.9309H26.3846C25.7079 50.9309 25.1665 51.472 25.1665 52.1483V53.3656C25.1665 54.0419 25.7079 54.583 26.3846 54.583V74.8045H28.7531V54.583H41.8813V74.8045H44.2498V54.583H57.3781V74.8045H59.7466Z" fill="#323063"/>
<path d="M71.3863 46.8731L60.5589 29.6273L43.0997 24.1492L25.6405 29.6273L14.8131 46.8731C14.4747 47.4141 13.7304 47.617 13.189 47.2789L11.1588 45.9939C10.6175 45.6557 10.4145 44.9118 10.7528 44.3708L22.5276 25.5694L43.1674 19.1445L63.7395 25.5694L75.5143 44.3708C75.8526 44.9118 75.7173 45.6557 75.1082 45.9939L73.0781 47.2789C72.4691 47.617 71.7247 47.4818 71.3863 46.8731Z" fill="#323063"/>
<path d="M88.71 68.853H70.4387V73.5872H88.71V68.853Z" fill="#D8D8D8"/>
<path d="M87.4916 31.5886C91.4842 31.5886 94.7325 34.8349 94.7325 38.8251V50.3899C94.7325 54.3801 91.4842 57.6264 87.4916 57.6264C83.499 57.6264 80.2508 54.3801 80.2508 50.3899V38.8251C80.1831 34.8349 83.4313 31.5886 87.4916 31.5886Z" fill="#008100"/>
<path d="M86.0032 47.5493H88.9131V73.6547H86.0032V47.5493Z" fill="#763A02"/>
<path d="M94.2591 76.0219H2.22616C1.34644 76.0219 0.602051 75.4808 0.602051 74.8045C0.602051 74.1282 1.34644 73.5872 2.22616 73.5872H94.1914C95.0712 73.5872 95.8156 74.1282 95.8156 74.8045C95.8832 75.4808 95.1388 76.0219 94.2591 76.0219Z" fill="#31BE00"/>
<circle cx="21.834" cy="66.833" r="18.3447" fill="#E67B57"/>
<path d="M34.2984 63.5745L33.6956 63.6623L26.8517 64.7916C26.8266 64.7916 26.8015 64.8293 26.8141 64.8544C26.8643 64.9547 26.9522 65.1932 26.9522 65.5194C26.9522 66.6989 25.9727 67.6526 24.7672 67.6526C23.5742 67.6526 22.6072 66.7115 22.5821 65.5571C22.557 65.532 22.557 65.532 22.5319 65.5069L9.59753 67.6902C9.37149 67.7655 9.29614 67.8032 9.29614 68.1043V70.2375C9.29614 70.2626 9.32126 70.2877 9.34637 70.2877C10.1752 70.3253 10.8533 71.028 10.8533 71.8938C10.8533 72.7596 10.1877 73.4749 9.34637 73.5C9.32126 73.5 9.29614 73.5251 9.29614 73.5502V76.1727C9.29614 76.1978 9.32126 76.2229 9.34637 76.2229C10.6524 75.997 20.3971 74.3532 27.6303 73.1361C27.7433 73.111 27.8563 73.0984 27.9694 73.0733C27.9945 73.0733 28.007 73.0482 28.007 73.0231C27.9694 72.8726 27.9568 72.7094 27.9568 72.5463C27.9568 71.3166 28.9865 70.3128 30.2674 70.3128C31.4353 70.3128 32.4022 71.1535 32.5529 72.2577C32.5529 72.2828 32.578 72.3079 32.6031 72.2954C33.3566 72.1699 33.9342 72.0695 34.2858 72.0068C34.311 72.0068 34.3235 71.9817 34.3235 71.9566C34.3235 71.8436 34.3235 71.6554 34.3235 71.4044C34.3361 69.8108 34.3738 65.5822 34.3738 63.8882C34.3738 63.7878 34.3612 63.6874 34.3361 63.587C34.3486 63.587 34.3235 63.5745 34.2984 63.5745Z" fill="#FFC964"/>
<path d="M10.4256 66.6609L22.7572 64.6155C22.7697 64.6155 22.7823 64.603 22.7948 64.5904C23.159 63.9128 23.8999 63.7497 24.4524 63.6744C24.5529 63.6619 24.6659 63.6493 24.7664 63.6493C25.2561 63.6493 25.7333 63.7873 26.1101 64.0383C26.1226 64.0509 26.1352 64.0509 26.1477 64.0509L33.5567 62.8211L33.8581 62.771C33.8707 62.7208 33.8707 62.7333 33.8832 62.6957C33.1423 61.9177 32.3638 61.2526 31.5852 60.6754C31.5726 60.6629 31.5475 60.6629 31.535 60.6754C31.1833 60.8887 30.7438 61.0142 30.2541 61.0142C29.0988 61.0142 28.1946 60.3115 28.1946 59.4206C28.1946 59.2199 28.2449 59.0316 28.3202 58.856C28.3328 58.8309 28.3202 58.8058 28.2951 58.7932C25.6078 57.6388 23.0962 57.4004 21.4512 57.4004C21.3005 57.4004 21.1749 57.438 21.0996 57.5008C20.9865 57.6012 16.3528 61.5162 14.8961 62.771C14.8333 62.8211 14.8835 62.8713 14.9086 62.8964C15.1849 63.1474 15.3356 63.4611 15.3356 63.7999C15.3356 64.3395 14.9338 64.8288 14.2682 65.0923C13.9417 65.2178 13.5524 65.2931 13.1757 65.2931C12.8492 65.2931 12.5101 65.2429 12.2213 65.1425C12.2087 65.1425 12.1334 65.13 12.1083 65.1551C12.0706 65.1927 11.9702 65.268 11.8195 65.3935C11.5306 65.6319 10.8525 66.184 10.3753 66.5856C10.3502 66.6107 10.3753 66.6734 10.4256 66.6609ZM21.1623 59.8849C22.3176 59.8849 23.2218 60.5876 23.2218 61.4785C23.2218 62.3694 22.3176 63.0721 21.1623 63.0721C20.007 63.0721 19.1029 62.3694 19.1029 61.4785C19.1029 60.5876 20.007 59.8849 21.1623 59.8849Z" fill="#FFE183"/>
<path d="M17.0311 68.1545C16.2277 68.1545 15.575 68.7817 15.575 69.5343C15.575 70.2995 16.2277 70.9141 17.0311 70.9141C17.8345 70.9141 18.4873 70.2869 18.4873 69.5343C18.4873 68.7817 17.8345 68.1545 17.0311 68.1545Z" fill="#F3A334"/>
<path d="M16.1775 69.5468C16.1775 68.882 16.6796 68.3301 17.3324 68.1921C17.232 68.167 17.1315 68.167 17.0311 68.167C16.2277 68.167 15.575 68.7942 15.575 69.5468C15.575 70.3119 16.2277 70.9266 17.0311 70.9266C17.1315 70.9266 17.232 70.914 17.3324 70.9015C16.6671 70.7635 16.1775 70.2116 16.1775 69.5468Z" fill="#E87E04"/>
<path d="M24.7667 64.5156C24.6914 64.5156 24.6286 64.5156 24.5533 64.5282C23.7499 64.6285 23.5616 64.8794 23.4862 65.1303C23.4486 65.2557 23.436 65.2933 23.436 65.5317C23.436 66.2466 24.0386 66.8236 24.7667 66.8236C25.5073 66.8236 26.0973 66.2466 26.0973 65.5317C26.0973 65.193 25.909 64.9672 25.7458 64.8418C25.5073 64.6285 25.1433 64.5156 24.7667 64.5156Z" fill="#FFC964"/>
<path d="M24.0888 65.4314C24.0888 65.0927 24.2143 64.7791 24.4277 64.5408C23.7373 64.6537 23.5616 64.8794 23.4862 65.1178C23.4486 65.2432 23.436 65.2808 23.436 65.5192C23.436 66.2342 24.0386 66.8112 24.7667 66.8112C24.9048 66.8112 25.0303 66.7861 25.1433 66.761C24.5407 66.5979 24.0888 66.0585 24.0888 65.4314Z" fill="#F3A334"/>
<path d="M21.1625 62.2189C21.8027 62.2189 22.3801 61.8677 22.3801 61.4788C22.3801 61.1276 21.878 60.7388 21.1625 60.7388C20.447 60.7388 19.9448 61.1276 19.9448 61.4788C19.9448 61.8677 20.5097 62.2189 21.1625 62.2189Z" fill="#FFC964"/>
<path d="M34.5369 62.1565C33.796 61.3785 33.0049 60.6758 32.151 60.0484C32.0254 59.9606 31.9124 59.8727 31.7868 59.7849C31.6235 59.672 31.4101 59.6971 31.2594 59.8351C31.1338 59.948 30.9454 60.0484 30.7445 60.1112C30.5938 60.1488 30.4306 60.1739 30.2548 60.1739C29.6143 60.1739 29.0367 59.8226 29.0367 59.4336C29.0367 59.3457 29.0618 59.2704 29.112 59.1826C29.1874 59.0697 29.3004 58.9693 29.4511 58.8814C29.6394 58.7811 29.6269 58.505 29.426 58.4046C29.2753 58.3293 29.112 58.254 28.9488 58.1788C28.2204 57.8525 27.467 57.5639 26.6758 57.3255C24.9931 56.8236 23.2225 56.5601 21.4644 56.5601C21.1128 56.5601 20.7863 56.6604 20.5603 56.8612C20.4598 56.949 15.0977 61.4914 14.0428 62.3824C13.9424 62.4702 13.8545 62.5706 13.8043 62.6584C13.6661 62.9094 13.7917 63.198 14.0428 63.3235C14.3191 63.4489 14.4572 63.6497 14.4572 63.8128C14.4572 63.9885 14.294 64.1642 13.9675 64.2897C13.7289 64.3775 13.4652 64.4277 13.1889 64.4277C12.9503 64.4277 12.7117 64.39 12.4983 64.3273C12.4983 64.3273 12.3099 64.252 12.1592 64.252C11.9583 64.252 11.7574 64.3399 11.569 64.4904C11.5313 64.5155 11.4309 64.6034 11.2927 64.7163C10.2002 65.6198 9.43419 66.2597 9.24583 66.4856C9.00723 66.7616 8.8691 66.9875 8.81887 67.0628C8.71841 67.1883 8.44214 67.6274 8.44214 68.3301V70.5135C8.44214 70.9527 8.73096 71.1534 9.03235 71.1534C9.09514 71.1534 9.14537 71.1409 9.17048 71.1409H9.18304C9.20815 71.1409 9.24583 71.1409 9.27094 71.1409C9.66023 71.1409 9.98673 71.4797 9.98673 71.9063C9.98673 72.333 9.66023 72.6718 9.27094 72.6718C9.24583 72.6718 9.22071 72.6718 9.1956 72.6718C9.17048 72.6718 9.14537 72.6718 9.10769 72.6718C8.7812 72.6718 8.44214 72.9102 8.44214 73.3243V76.3609C8.44214 76.7875 8.76864 77.1263 9.1956 77.1263C9.24583 77.1263 9.29606 77.1263 9.34629 77.1138C9.66023 77.0636 20.5603 75.219 27.7683 74.0144C27.9818 73.9768 28.1953 73.9391 28.3962 73.914H28.4213C28.8106 73.8513 29.0241 73.4372 28.886 73.0733C28.8734 73.0482 28.8609 73.0106 28.8483 72.9855C28.8106 72.86 28.7855 72.7345 28.7855 72.609C28.7855 71.8436 29.4385 71.2287 30.2422 71.2287C31.0082 71.2287 31.6361 71.7934 31.6989 72.5086C31.6989 72.5463 31.6989 72.5714 31.6989 72.609V72.6216C31.6989 73.0106 32.0505 73.3117 32.4272 73.2364H32.4523C33.4193 73.0733 34.1476 72.9478 34.5118 72.8851C34.8006 72.8349 35.1522 72.6718 35.1522 72.1322C35.1522 72.1071 35.1522 71.8687 35.1522 71.4797C35.1648 69.8861 35.2025 65.6448 35.2025 63.9509C35.2025 63.4991 35.0392 63.0599 35.0015 62.9721C35.0015 62.8466 34.8509 62.4827 34.5369 62.1565ZM10.3886 66.586C10.8658 66.1719 11.5439 65.6198 11.8327 65.3939C11.9834 65.2684 12.0839 65.1806 12.1215 65.1555C12.1466 65.1429 12.222 65.1429 12.2345 65.1429C12.5234 65.2433 12.8624 65.2935 13.1889 65.2935C13.5782 65.2935 13.9549 65.2182 14.2814 65.0927C14.947 64.8167 15.3488 64.3399 15.3488 63.7877C15.3488 63.4489 15.1981 63.1478 14.9219 62.8843C14.8968 62.8592 14.8465 62.809 14.9093 62.7588C16.3786 61.5165 20.9998 57.589 21.1128 57.4886C21.1881 57.4259 21.3137 57.3882 21.4644 57.3882C23.0969 57.3882 25.6084 57.6266 28.3083 58.7811C28.3334 58.7936 28.346 58.8187 28.3334 58.8438C28.2455 59.0195 28.2079 59.2077 28.2079 59.4085C28.2079 60.2994 29.112 61.0021 30.2673 61.0021C30.7571 61.0021 31.1966 60.8766 31.5482 60.6633C31.5608 60.6507 31.5859 60.6507 31.5984 60.6633C32.377 61.2405 33.143 61.9055 33.8965 62.6835C33.8839 62.7337 33.8839 62.7212 33.8714 62.7588L33.5574 62.8341L26.1484 64.0638C26.1359 64.0638 26.1233 64.0638 26.1107 64.0512C25.734 63.8003 25.2568 63.6623 24.7671 63.6623C24.6541 63.6623 24.5536 63.6748 24.4531 63.6874C23.9006 63.7626 23.1471 63.9258 22.7955 64.6034C22.783 64.6159 22.783 64.6285 22.7578 64.6285L10.4262 66.6612C10.376 66.6738 10.3509 66.611 10.3886 66.586ZM25.7591 64.8418C25.9224 64.9673 26.1107 65.1931 26.1107 65.5319C26.1107 66.2472 25.508 66.8244 24.7796 66.8244C24.0387 66.8244 23.4485 66.2472 23.4485 65.5319C23.4485 65.2935 23.4611 65.2559 23.4987 65.1304C23.5741 64.8794 23.7625 64.6285 24.5661 64.5281C24.6415 64.5155 24.7043 64.5155 24.7796 64.5155C25.1438 64.5155 25.508 64.6285 25.7591 64.8418ZM34.336 71.417C34.336 71.6679 34.336 71.8561 34.336 71.9691C34.336 71.9942 34.3234 72.0067 34.2983 72.0193C33.9467 72.082 33.3691 72.1824 32.6156 72.3079C32.5905 72.3079 32.5654 72.2953 32.5654 72.2702C32.4147 71.1785 31.4477 70.3253 30.2799 70.3253C29.0116 70.3253 27.9693 71.3291 27.9693 72.5588C27.9693 72.7219 27.9944 72.8725 28.0195 73.0357C28.0195 73.0607 28.0069 73.0858 27.9818 73.0858C27.8688 73.1109 27.7558 73.1235 27.6428 73.1486C20.4221 74.3657 10.6648 76.0095 9.35885 76.2354C9.33373 76.2354 9.30862 76.2229 9.30862 76.1852V73.5627C9.30862 73.5376 9.33373 73.5125 9.35885 73.5125C10.1877 73.4748 10.8658 72.7721 10.8658 71.9063C10.8658 71.0405 10.2002 70.3253 9.35885 70.3002C9.33373 70.3002 9.30862 70.2751 9.30862 70.25V68.1043C9.30862 67.8031 9.38396 67.7655 9.61 67.6902L22.5444 65.5194C22.5695 65.5445 22.5695 65.5445 22.5946 65.5696C22.6197 66.724 23.5867 67.6651 24.7796 67.6651C25.9852 67.6651 26.9647 66.7114 26.9647 65.5319C26.9647 65.2057 26.8768 64.9673 26.8265 64.8669C26.814 64.8418 26.8265 64.8041 26.8642 64.8041L33.7081 63.6748L34.3109 63.587C34.336 63.587 34.3611 63.5995 34.3611 63.6246C34.3862 63.725 34.3988 63.8254 34.3988 63.9258C34.3862 65.5947 34.3486 69.8233 34.336 71.417Z" fill="#323063"/>
<path d="M21.1622 63.0589C22.3171 63.0589 23.221 62.3564 23.221 61.4658C23.221 60.5752 22.3171 59.8728 21.1622 59.8728C20.0073 59.8728 19.1035 60.5752 19.1035 61.4658C19.1035 62.3564 20.0073 63.0589 21.1622 63.0589ZM21.1622 60.7258C21.8778 60.7258 22.3799 61.1146 22.3799 61.4658C22.3799 61.8547 21.815 62.2059 21.1622 62.2059C20.522 62.2059 19.9446 61.8547 19.9446 61.4658C19.9446 61.1272 20.4467 60.7258 21.1622 60.7258Z" fill="#323063"/>
<path d="M17.0318 67.3137C15.7635 67.3137 14.7212 68.3176 14.7212 69.5473C14.7212 70.777 15.7509 71.7808 17.0318 71.7808C18.3001 71.7808 19.3424 70.777 19.3424 69.5473C19.3424 68.3176 18.3001 67.3137 17.0318 67.3137ZM17.0318 70.9276C16.2281 70.9276 15.5751 70.3002 15.5751 69.5473C15.5751 68.7818 16.2281 68.167 17.0318 68.167C17.8355 68.167 18.4885 68.7944 18.4885 69.5473C18.4885 70.3127 17.8355 70.9276 17.0318 70.9276Z" fill="#323063"/>
<path d="M20.4093 61.2905C20.4093 61.1023 20.5474 60.9142 20.7859 60.7637C20.2838 60.864 19.9448 61.1776 19.9448 61.4661C19.9448 61.855 20.5097 62.2062 21.1625 62.2062C21.4763 62.2062 21.7776 62.1184 22.0035 61.9929C21.878 62.018 21.7525 62.0306 21.6269 62.0306C20.9742 62.0306 20.4093 61.6919 20.4093 61.2905Z" fill="#F3A334"/>
<path d="M9.33366 73.5251C9.30855 73.5251 9.28345 73.5501 9.28345 73.5752V76.1968C9.28345 76.2219 9.30855 76.247 9.33366 76.247C9.52196 76.2219 9.87345 76.1592 10.3505 76.0714V73.0735C10.0994 73.3244 9.73536 73.5 9.33366 73.5251Z" fill="#F3A334"/>
<path d="M9.59742 67.7028C9.37146 67.7781 9.29614 67.8157 9.29614 68.1168V70.2492C9.29614 70.2743 9.32125 70.2993 9.34636 70.2993C9.74806 70.3119 10.1121 70.4875 10.3757 70.7635V67.5774L9.59742 67.7028Z" fill="#F3A334"/>
<path d="M21.4646 57.4136C21.3139 57.4136 21.1883 57.4512 21.1129 57.514C20.9999 57.6143 16.3662 61.5293 14.9095 62.7841C14.8467 62.8343 14.8969 62.8845 14.922 62.9096C15.0853 63.0602 15.2109 63.2233 15.2736 63.4115L22.3059 57.4387C22.0045 57.4261 21.7283 57.4136 21.4646 57.4136Z" fill="#F3A334"/>
<path d="M12.2338 65.143C12.2213 65.143 12.1459 65.1305 12.1208 65.1556C12.0832 65.1932 11.9827 65.2685 11.8321 65.3939C11.5434 65.6322 10.8655 66.1841 10.3885 66.5855C10.3508 66.6106 10.3759 66.6733 10.4262 66.6733L11.6689 66.4726L13.0623 65.2936C12.7736 65.281 12.4849 65.2308 12.2338 65.143Z" fill="#F3A334"/>
<path d="M21.8335 48.5015C21.3452 48.5015 20.8569 48.5015 20.3687 48.5712C29.7854 49.3385 37.2491 57.2207 37.2491 66.8467C37.2491 76.4727 29.8552 84.3549 20.3687 85.1222C20.8569 85.1919 21.3452 85.1919 21.8335 85.1919C31.9478 85.1919 40.1787 76.961 40.1787 66.8467C40.1787 56.7324 31.9478 48.5015 21.8335 48.5015Z" fill="#CA4B21"/>
<circle cx="64.8186" cy="66.8789" r="18.3379" fill="#E67B57"/>
<path d="M64.8183 48.5542C64.3302 48.5542 63.8421 48.5542 63.354 48.6239C72.7673 49.3909 80.2282 57.2702 80.2282 66.8927C80.2282 76.5151 72.837 84.3944 63.354 85.1614C63.8421 85.2311 64.3302 85.2311 64.8183 85.2311C74.9289 85.2311 83.1568 77.0032 83.1568 66.8927C83.1568 56.7821 74.9289 48.5542 64.8183 48.5542Z" fill="#CA4B21"/>
<path d="M76.9665 63.6184L76.356 63.7062L69.4244 64.8351C69.3989 64.8351 69.3735 64.8727 69.3862 64.8978C69.4371 64.9981 69.5261 65.2365 69.5261 65.5626C69.5261 66.7416 68.5341 67.6949 67.3131 67.6949C66.1048 67.6949 65.1255 66.7542 65.1 65.6002C65.0746 65.5751 65.0746 65.5751 65.0492 65.55L51.949 67.7325C51.7201 67.8078 51.6438 67.8454 51.6438 68.1464V70.2788C51.6438 70.3039 51.6692 70.3289 51.6947 70.3289C52.5341 70.3666 53.2209 71.069 53.2209 71.9344C53.2209 72.7999 52.5468 73.5149 51.6947 73.54C51.6692 73.54 51.6438 73.565 51.6438 73.5901V76.2116C51.6438 76.2367 51.6692 76.2618 51.6947 76.2618C53.0174 76.036 62.887 74.3929 70.2129 73.1762C70.3274 73.1511 70.4418 73.1386 70.5563 73.1135C70.5817 73.1135 70.5945 73.0884 70.5945 73.0633C70.5563 72.9128 70.5436 72.7497 70.5436 72.5867C70.5436 71.3575 71.5865 70.354 72.8838 70.354C74.0666 70.354 75.046 71.1944 75.1986 72.2982C75.1986 72.3233 75.224 72.3484 75.2495 72.3358C76.0126 72.2104 76.5976 72.1101 76.9537 72.0473C76.9792 72.0473 76.9919 72.0223 76.9919 71.9972C76.9919 71.8843 76.9919 71.6961 76.9919 71.4453C77.0046 69.8523 77.0428 65.6253 77.0428 63.932C77.0428 63.8316 77.0301 63.7313 77.0046 63.631C77.0173 63.631 76.9919 63.6184 76.9665 63.6184Z" fill="#FFC964"/>
<path d="M52.7886 66.704L65.2783 64.6595C65.291 64.6595 65.3037 64.647 65.3164 64.6344C65.6853 63.9571 66.4357 63.794 66.9953 63.7188C67.097 63.7062 67.2115 63.6937 67.3132 63.6937C67.8093 63.6937 68.2926 63.8317 68.6741 64.0825C68.6868 64.0951 68.6996 64.0951 68.7123 64.0951L76.2162 62.8659L76.5215 62.8157C76.5342 62.7655 76.5342 62.7781 76.5469 62.7404C75.7965 61.9628 75.008 61.298 74.2194 60.721C74.2067 60.7085 74.1813 60.7085 74.1685 60.721C73.8124 60.9342 73.3673 61.0597 72.8713 61.0597C71.7011 61.0597 70.7854 60.3573 70.7854 59.4667C70.7854 59.266 70.8363 59.0779 70.9126 58.9023C70.9253 58.8772 70.9126 58.8521 70.8872 58.8395C68.1654 57.6856 65.6217 57.4473 63.9555 57.4473C63.8029 57.4473 63.6757 57.4849 63.5994 57.5476C63.4849 57.648 58.7918 61.5614 57.3164 62.8157C57.2529 62.8659 57.3037 62.916 57.3292 62.9411C57.609 63.192 57.7616 63.5056 57.7616 63.8442C57.7616 64.3836 57.3546 64.8727 56.6805 65.1362C56.3498 65.2616 55.9556 65.3368 55.574 65.3368C55.2433 65.3368 54.8999 65.2867 54.6074 65.1863C54.5947 65.1863 54.5184 65.1738 54.4929 65.1989C54.4548 65.2365 54.353 65.3118 54.2004 65.4372C53.9079 65.6755 53.2211 66.2274 52.7378 66.6288C52.7123 66.6539 52.7378 66.7166 52.7886 66.704ZM63.663 59.9308C64.8331 59.9308 65.7489 60.6332 65.7489 61.5238C65.7489 62.4143 64.8331 63.1167 63.663 63.1167C62.4929 63.1167 61.5772 62.4143 61.5772 61.5238C61.5772 60.6332 62.4929 59.9308 63.663 59.9308Z" fill="#FFE183"/>
<path d="M59.4785 68.1968C58.6645 68.1968 58.0032 68.8239 58.0032 69.5765C58.0032 70.3416 58.6645 70.9562 59.4785 70.9562C60.2925 70.9562 60.9539 70.3291 60.9539 69.5765C60.9539 68.8239 60.2925 68.1968 59.4785 68.1968Z" fill="#F3A334"/>
<path d="M58.6137 69.589C58.6137 68.9242 59.1224 68.3723 59.7838 68.2343C59.682 68.2092 59.5803 68.2092 59.4785 68.2092C58.6645 68.2092 58.0032 68.8364 58.0032 69.589C58.0032 70.3541 58.6645 70.9687 59.4785 70.9687C59.5803 70.9687 59.682 70.9562 59.7838 70.9436C59.1097 70.8056 58.6137 70.2537 58.6137 69.589Z" fill="#E87E04"/>
<path d="M67.3133 64.5591C67.2369 64.5591 67.1733 64.5591 67.097 64.5716C66.2831 64.672 66.0923 64.9228 66.016 65.1737C65.9778 65.2991 65.9651 65.3368 65.9651 65.5751C65.9651 66.29 66.5756 66.867 67.3133 66.867C68.0636 66.867 68.6614 66.29 68.6614 65.5751C68.6614 65.2364 68.4706 65.0106 68.3053 64.8852C68.0636 64.672 67.6948 64.5591 67.3133 64.5591Z" fill="#FFC964"/>
<path d="M66.6265 65.4748C66.6265 65.1361 66.7536 64.8225 66.9699 64.5842C66.2703 64.6971 66.0923 64.9229 66.016 65.1612C65.9778 65.2866 65.9651 65.3243 65.9651 65.5626C65.9651 66.2775 66.5756 66.8545 67.3133 66.8545C67.4532 66.8545 67.5803 66.8294 67.6948 66.8043C67.0843 66.6413 66.6265 66.1019 66.6265 65.4748Z" fill="#F3A334"/>
<path d="M63.6629 62.2638C64.3115 62.2638 64.8966 61.9126 64.8966 61.5237C64.8966 61.1725 64.3879 60.7837 63.6629 60.7837C62.9379 60.7837 62.4292 61.1725 62.4292 61.5237C62.4292 61.9126 63.0015 62.2638 63.6629 62.2638Z" fill="#FFC964"/>
<path d="M77.2082 62.2011C76.4578 61.4235 75.6566 60.7211 74.7917 60.0939C74.6645 60.0061 74.55 59.9183 74.4229 59.8305C74.2575 59.7176 74.0413 59.7427 73.8887 59.8807C73.7615 59.9936 73.5707 60.0939 73.3672 60.1566C73.2146 60.1942 73.0493 60.2193 72.8712 60.2193C72.2226 60.2193 71.6375 59.8681 71.6375 59.4793C71.6375 59.3915 71.6629 59.3162 71.7138 59.2284C71.7901 59.1155 71.9046 59.0152 72.0572 58.9274C72.248 58.8271 72.2353 58.5511 72.0318 58.4508C71.8792 58.3755 71.7138 58.3002 71.5485 58.225C70.8108 57.8989 70.0477 57.6104 69.2464 57.3721C67.5421 56.8703 65.7488 56.6069 63.9682 56.6069C63.6121 56.6069 63.2814 56.7073 63.0525 56.908C62.9507 56.9958 57.5199 61.5364 56.4515 62.4269C56.3498 62.5147 56.2608 62.6151 56.2099 62.7029C56.07 62.9537 56.1972 63.2422 56.4515 63.3676C56.7313 63.4931 56.8712 63.6938 56.8712 63.8568C56.8712 64.0324 56.7059 64.208 56.3752 64.3335C56.1336 64.4213 55.8665 64.4714 55.5867 64.4714C55.345 64.4714 55.1034 64.4338 54.8871 64.3711C54.8871 64.3711 54.6964 64.2958 54.5437 64.2958C54.3403 64.2958 54.1368 64.3836 53.946 64.5341C53.9078 64.5592 53.8061 64.647 53.6662 64.7599C52.5597 65.663 51.7838 66.3027 51.593 66.5285C51.3514 66.8044 51.2115 67.0302 51.1606 67.1055C51.0589 67.2309 50.7791 67.6699 50.7791 68.3723V70.5548C50.7791 70.9938 51.0716 71.1945 51.3768 71.1945C51.4404 71.1945 51.4913 71.182 51.5167 71.182H51.5294C51.5549 71.182 51.593 71.182 51.6185 71.182C52.0128 71.182 52.3434 71.5206 52.3434 71.9471C52.3434 72.3735 52.0128 72.7122 51.6185 72.7122C51.593 72.7122 51.5676 72.7122 51.5422 72.7122C51.5167 72.7122 51.4913 72.7122 51.4531 72.7122C51.1225 72.7122 50.7791 72.9505 50.7791 73.3644V76.3999C50.7791 76.8263 51.1097 77.165 51.5422 77.165C51.593 77.165 51.6439 77.165 51.6948 77.1524C52.0128 77.1023 63.0525 75.2584 70.3529 74.0543C70.5691 74.0167 70.7854 73.9791 70.9888 73.954H71.0143C71.4086 73.8913 71.6248 73.4773 71.4849 73.1136C71.4722 73.0885 71.4594 73.0509 71.4467 73.0258C71.4086 72.9004 71.3831 72.7749 71.3831 72.6495C71.3831 71.8844 72.0445 71.2698 72.8585 71.2698C73.6343 71.2698 74.2702 71.8342 74.3338 72.5491C74.3338 72.5868 74.3338 72.6119 74.3338 72.6495V72.662C74.3338 73.0509 74.69 73.3519 75.0715 73.2766H75.0969C76.0763 73.1136 76.814 72.9882 77.1828 72.9254C77.4753 72.8753 77.8314 72.7122 77.8314 72.1729C77.8314 72.1478 77.8314 71.9095 77.8314 71.5206C77.8442 69.9277 77.8823 65.6881 77.8823 63.9948C77.8823 63.5432 77.717 63.1042 77.6788 63.0164C77.6788 62.891 77.5262 62.5273 77.2082 62.2011ZM52.7504 66.6288C53.2337 66.2149 53.9205 65.663 54.2131 65.4372C54.3657 65.3118 54.4674 65.224 54.5056 65.1989C54.531 65.1864 54.6073 65.1864 54.6201 65.1864C54.9126 65.2867 55.256 65.3369 55.5867 65.3369C55.9809 65.3369 56.3625 65.2616 56.6932 65.1362C57.3673 64.8603 57.7743 64.3836 57.7743 63.8317C57.7743 63.4931 57.6216 63.192 57.3418 62.9286C57.3164 62.9035 57.2655 62.8534 57.3291 62.8032C58.8172 61.5614 63.4976 57.6355 63.6121 57.5351C63.6884 57.4724 63.8156 57.4348 63.9682 57.4348C65.6216 57.4348 68.1653 57.6731 70.8998 58.8271C70.9253 58.8396 70.938 58.8647 70.9253 58.8898C70.8362 59.0654 70.7981 59.2535 70.7981 59.4542C70.7981 60.3448 71.7138 61.0472 72.8839 61.0472C73.3799 61.0472 73.8251 60.9217 74.1812 60.7085C74.1939 60.696 74.2194 60.696 74.2321 60.7085C75.0206 61.2855 75.7965 61.9503 76.5596 62.7279C76.5469 62.7781 76.5469 62.7656 76.5341 62.8032L76.2162 62.8785L68.7122 64.1077C68.6995 64.1077 68.6868 64.1077 68.6741 64.0951C68.2925 63.8443 67.8092 63.7063 67.3132 63.7063C67.1987 63.7063 67.097 63.7188 66.9952 63.7314C66.4356 63.8066 65.6725 63.9697 65.3164 64.647C65.3037 64.6596 65.3037 64.6721 65.2782 64.6721L52.7886 66.7041C52.7377 66.7166 52.7123 66.6539 52.7504 66.6288ZM68.318 64.8853C68.4833 65.0108 68.6741 65.2366 68.6741 65.5752C68.6741 66.2902 68.0636 66.8671 67.3259 66.8671C66.5755 66.8671 65.9777 66.2902 65.9777 65.5752C65.9777 65.3369 65.9905 65.2993 66.0286 65.1738C66.1049 64.923 66.2957 64.6721 67.1097 64.5718C67.186 64.5592 67.2496 64.5592 67.3259 64.5592C67.6947 64.5592 68.0636 64.6721 68.318 64.8853ZM77.0047 71.4579C77.0047 71.7088 77.0047 71.8969 77.0047 72.0098C77.0047 72.0349 76.992 72.0474 76.9666 72.06C76.6105 72.1227 76.0254 72.223 75.2623 72.3485C75.2369 72.3485 75.2114 72.3359 75.2114 72.3108C75.0588 71.2196 74.0795 70.3667 72.8966 70.3667C71.6121 70.3667 70.5564 71.3701 70.5564 72.5993C70.5564 72.7624 70.5819 72.9129 70.6073 73.076C70.6073 73.101 70.5946 73.1261 70.5691 73.1261C70.4547 73.1512 70.3402 73.1638 70.2257 73.1888C62.9126 74.4055 53.0302 76.0487 51.7075 76.2744C51.6821 76.2744 51.6566 76.2619 51.6566 76.2243V73.6028C51.6566 73.5777 51.6821 73.5526 51.7075 73.5526C52.5469 73.515 53.2337 72.8126 53.2337 71.9471C53.2337 71.0816 52.5597 70.3667 51.7075 70.3416C51.6821 70.3416 51.6566 70.3165 51.6566 70.2914V68.1465C51.6566 67.8455 51.7329 67.8079 51.9619 67.7326L65.062 65.5627C65.0874 65.5878 65.0874 65.5878 65.1129 65.6128C65.1383 66.7668 66.1176 67.7075 67.3259 67.7075C68.5469 67.7075 69.5389 66.7543 69.5389 65.5752C69.5389 65.2491 69.4499 65.0108 69.399 64.9104C69.3863 64.8853 69.399 64.8477 69.4372 64.8477L76.3688 63.7188L76.9793 63.631C77.0047 63.631 77.0302 63.6436 77.0302 63.6687C77.0556 63.769 77.0683 63.8694 77.0683 63.9697C77.0556 65.6379 77.0175 69.8649 77.0047 71.4579Z" fill="#323063"/>
<path d="M63.663 63.1041C64.8331 63.1041 65.7488 62.4017 65.7488 61.5112C65.7488 60.6206 64.8331 59.9182 63.663 59.9182C62.4929 59.9182 61.5771 60.6206 61.5771 61.5112C61.5771 62.4017 62.4929 63.1041 63.663 63.1041ZM63.663 60.7711C64.388 60.7711 64.8967 61.16 64.8967 61.5112C64.8967 61.9 64.3244 62.2512 63.663 62.2512C63.0143 62.2512 62.4293 61.9 62.4293 61.5112C62.4293 61.1725 62.938 60.7711 63.663 60.7711Z" fill="#323063"/>
<path d="M59.4786 67.3562C58.1941 67.3562 57.1384 68.3596 57.1384 69.5889C57.1384 70.8181 58.1814 71.8215 59.4786 71.8215C60.7632 71.8215 61.8189 70.8181 61.8189 69.5889C61.8189 68.3596 60.7632 67.3562 59.4786 67.3562ZM59.4786 70.9686C58.6647 70.9686 58.0033 70.3414 58.0033 69.5889C58.0033 68.8237 58.6647 68.2091 59.4786 68.2091C60.2926 68.2091 60.954 68.8363 60.954 69.5889C60.954 70.354 60.2926 70.9686 59.4786 70.9686Z" fill="#323063"/>
<path d="M62.8998 61.3356C62.8998 61.1475 63.0397 60.9594 63.2813 60.8088C62.7726 60.9092 62.4292 61.2228 62.4292 61.5112C62.4292 61.9001 63.0015 62.2513 63.6629 62.2513C63.9809 62.2513 64.2861 62.1635 64.515 62.0381C64.3879 62.0631 64.2607 62.0757 64.1335 62.0757C63.4721 62.0757 62.8998 61.737 62.8998 61.3356Z" fill="#F3A334"/>
<path d="M51.6822 73.5651C51.6568 73.5651 51.6313 73.5902 51.6313 73.6152V76.2367C51.6313 76.2618 51.6568 76.2869 51.6822 76.2869C51.873 76.2618 52.2291 76.1991 52.7124 76.1113V73.1135C52.4581 73.3644 52.0892 73.54 51.6822 73.5651Z" fill="#F3A334"/>
<path d="M51.949 67.7453C51.7201 67.8206 51.6438 67.8582 51.6438 68.1592V70.2915C51.6438 70.3166 51.6692 70.3417 51.6947 70.3417C52.1017 70.3543 52.4705 70.5299 52.7376 70.8058V67.6199L51.949 67.7453Z" fill="#F3A334"/>
<path d="M63.9681 57.46C63.8155 57.46 63.6883 57.4976 63.612 57.5603C63.4976 57.6606 58.8044 61.5741 57.329 62.8284C57.2655 62.8786 57.3163 62.9287 57.3418 62.9538C57.5071 63.1043 57.6343 63.2674 57.6979 63.4555L64.8203 57.485C64.515 57.4725 64.2352 57.46 63.9681 57.46Z" fill="#F3A334"/>
<path d="M54.6202 65.1865C54.6075 65.1865 54.5311 65.1739 54.5057 65.199C54.4676 65.2367 54.3658 65.3119 54.2132 65.4373C53.9207 65.6757 53.2339 66.2276 52.7505 66.6289C52.7124 66.654 52.7378 66.7167 52.7887 66.7167L54.0478 66.516L55.4596 65.337C55.1671 65.3245 54.8745 65.2743 54.6202 65.1865Z" fill="#F3A334"/>
<path d="M78.4758 72.9362C78.4758 75.023 76.7716 76.7273 74.6847 76.7273C72.5979 76.7273 70.9285 75.023 70.9285 72.9362C70.9285 70.8494 72.6327 69.1799 74.6847 69.1799C76.7716 69.1799 78.4758 70.8494 78.4758 72.9362Z" fill="white"/>
<path d="M74.6845 74.8492C74.6845 74.884 74.5802 74.9187 74.3715 74.9535C74.1628 74.9883 73.9194 74.9883 73.7107 74.9883C73.502 74.9883 73.3629 74.9883 73.2933 74.9535C73.2237 74.9187 73.189 74.884 73.189 74.8492V71.3711C73.189 71.1972 73.7107 71.1277 74.7541 71.1277C75.3801 71.1277 75.7975 71.1625 76.0062 71.2668C76.2496 71.3711 76.4235 71.5103 76.4931 71.6842C76.5974 71.8929 76.667 72.2059 76.667 72.5537C76.667 73.0406 76.5974 73.3884 76.4235 73.5971C76.3192 73.771 76.1801 73.8753 76.0757 73.9101C75.9714 73.9449 75.8671 73.9797 75.7627 74.0145C75.6932 74.0492 75.5888 74.0492 75.4845 74.0492C75.3106 74.0492 75.1019 74.084 74.8236 74.084H74.6845V74.8492ZM74.6845 73.1449H74.8236C74.8932 73.1449 74.9628 73.1449 74.9975 73.1102C75.0323 73.0754 75.0671 73.0406 75.1019 72.9363C75.1367 72.8319 75.1367 72.7276 75.1367 72.5537C75.1367 72.3798 75.1019 72.2754 75.0671 72.1711C75.0323 72.1015 74.9975 72.032 74.9628 72.032C74.928 71.9972 74.8932 71.9972 74.8584 71.9972H74.6845V73.1449Z" fill="#E67B57"/>
<path d="M71.9717 73.1102C71.8326 71.3712 72.876 69.8061 74.3716 69.4583C74.2325 69.4583 74.0585 69.4583 73.9194 69.4583C72.1804 69.5974 70.9283 71.2668 71.0674 73.2145C71.2066 75.1622 72.7369 76.5882 74.4759 76.4491C74.615 76.4491 74.7889 76.4143 74.9281 76.3795C73.3977 76.2404 72.1108 74.884 71.9717 73.1102Z" fill="#DFDFDF"/>
<path d="M74.6846 77.11C72.3891 77.11 70.511 75.2318 70.511 72.9363C70.511 70.6408 72.3891 68.7627 74.6846 68.7627C76.9801 68.7627 78.8583 70.6408 78.8583 72.9363C78.8583 75.2318 76.9801 77.11 74.6846 77.11ZM74.6846 69.5626C72.8413 69.5626 71.3109 71.093 71.3109 72.9363C71.3109 74.7797 72.8413 76.31 74.6846 76.31C76.528 76.31 78.0583 74.7797 78.0583 72.9363C78.0583 71.093 76.5628 69.5626 74.6846 69.5626Z" fill="#323063"/>
</svg>
