<svg width="869" height="869" viewBox="0 0 869 869" fill="none" xmlns="http://www.w3.org/2000/svg">
<g clip-path="url(#clip0)">
<path d="M328.627 338.664C322.182 338.664 315.519 337.651 309.002 335.624L305.526 334.538L304.222 331.136C304.005 330.557 298.646 316.008 298.719 297.26C298.791 271.854 308.785 250.79 327.54 236.24C329.423 234.793 331.741 233.997 334.13 233.997C338.475 233.997 342.313 236.53 344.051 240.511C348.324 250.283 363.966 282.494 387.501 288.647L397.06 291.18L391.991 299.649C391.05 301.314 368.311 338.664 328.627 338.664Z" fill="#FFB130"/>
<path d="M334.13 241.524C335.434 241.524 336.665 242.248 337.244 243.551C342.314 255.133 359.042 288.936 385.619 295.957C385.619 295.957 364.618 331.281 328.699 331.281C323.195 331.281 317.402 330.485 311.247 328.603C311.247 328.603 290.825 274.17 332.103 242.321C332.682 241.742 333.406 241.524 334.13 241.524ZM334.13 226.613C330.147 226.613 326.165 227.989 322.978 230.45C302.267 246.374 291.332 269.537 291.26 297.333C291.187 317.094 296.619 332.149 297.27 333.814L299.877 340.691L306.902 342.862C314.143 345.106 321.53 346.264 328.772 346.264C372.656 346.264 397.495 305.44 398.509 303.702L408.647 286.692L389.529 281.698C373.38 277.499 359.114 256.218 351.076 237.76C347.962 230.884 341.372 226.613 334.13 226.613Z" fill="#323063"/>
<path d="M544.428 338.664C504.744 338.664 482.078 301.314 481.064 299.721L475.995 291.252L485.554 288.719C509.089 282.566 524.731 250.283 529.004 240.583C530.742 236.602 534.652 234.069 538.925 234.069C541.315 234.069 543.632 234.865 545.515 236.313C564.271 250.79 574.264 271.926 574.336 297.333C574.409 316.08 569.05 330.557 568.833 331.208L567.529 334.61L564.053 335.696C557.463 337.651 550.873 338.664 544.428 338.664Z" fill="#FFB130"/>
<path d="M538.925 241.524C539.649 241.524 540.373 241.742 540.952 242.248C582.302 274.097 561.808 328.53 561.808 328.53C555.653 330.412 549.86 331.208 544.356 331.208C508.437 331.208 487.437 295.885 487.437 295.885C514.013 288.936 530.814 255.133 535.883 243.551C536.39 242.248 537.694 241.524 538.925 241.524ZM538.925 226.613C531.611 226.613 525.093 230.956 522.124 237.616C514.086 256.074 499.747 277.282 483.671 281.553L464.553 286.547L474.691 303.558C475.705 305.295 500.544 346.12 544.428 346.12C551.67 346.12 558.984 344.961 566.298 342.718L573.323 340.546L575.93 333.67C576.581 332.005 582.013 316.949 581.94 297.188C581.868 269.392 570.86 246.302 550.222 230.305C546.963 227.916 542.98 226.613 538.925 226.613Z" fill="#323063"/>
<path d="M244.044 421.688C228.837 434.283 206.822 430.592 192.845 421.761C177.059 411.844 160.186 397.512 154.972 366.676C151.93 348.508 160.91 329.109 179.593 313.546C183.214 310.506 187.269 307.611 191.542 304.933C220.436 286.981 253.386 276.631 279.673 277.21C304.15 277.716 321.385 291.18 323.558 311.375C325.151 326.069 316.316 335.624 306.54 343.731C303.281 346.409 299.805 349.087 295.532 352.272C294.084 353.358 292.636 354.516 291.26 355.602C273.083 370.73 264.393 387.74 257.441 401.493C255.413 405.474 253.531 409.238 251.575 412.568C249.62 416.187 247.013 419.227 244.044 421.688Z" fill="white"/>
<path d="M184.373 319.337C187.704 316.514 191.47 313.836 195.525 311.375C223.188 294.22 254.545 284.231 279.601 284.737C298.357 285.099 314.288 294.509 316.244 312.316C317.402 322.811 311.536 330.122 301.905 338.157C298.719 340.835 295.098 343.513 291.187 346.481C289.594 347.639 288.073 348.87 286.625 350.1C261.714 370.802 253.458 395.123 245.275 408.949C243.61 411.772 241.582 414.088 239.337 415.97C227.533 425.814 209.139 423.136 196.828 415.463C180.897 405.474 166.92 392.59 162.358 365.518C159.751 350.1 167.645 333.235 184.373 319.337ZM174.814 307.9C154.03 325.2 144.109 347.06 147.585 367.979C150.12 383.035 155.334 395.413 163.444 406.053C169.817 414.305 177.638 421.109 188.79 428.13C205.012 438.337 230.719 442.463 248.751 427.479C252.372 424.439 255.486 420.82 258.021 416.549C260.121 413.075 262.076 409.166 264.176 405.04C270.838 391.938 279.094 375.652 296.112 361.537C297.415 360.451 298.719 359.438 300.095 358.425C304.44 355.167 307.988 352.417 311.392 349.666C322.254 340.69 333.044 328.964 331.017 310.723C329.641 298.128 323.196 287.198 312.768 279.888C303.86 273.663 292.491 270.188 279.89 269.899C252.155 269.32 217.684 280.105 187.632 298.78C183.069 301.531 178.724 304.643 174.814 307.9Z" fill="#323063"/>
<path d="M339.634 296.319C340.213 285.679 326.237 282.132 308.35 284.52C284.453 287.633 252.951 298.129 224.057 312.533C198.711 325.128 184.373 339.46 184.735 350.318C185.314 366.315 196.973 372.25 210.877 376.159C223.623 379.778 245.71 377.751 258.238 365.446C268.593 355.24 280.542 337.868 310.885 320.785C327.613 311.303 339.2 304.716 339.634 296.319Z" fill="#323063"/>
<path d="M633.646 415.825C630.532 413.582 627.78 410.686 625.463 407.356C623.29 404.244 621.118 400.552 618.8 396.716C610.907 383.542 601.131 367.111 581.94 353.286C580.492 352.272 578.971 351.186 577.451 350.245C572.961 347.35 569.34 344.961 565.864 342.428C555.581 334.972 546.094 326.069 546.673 311.303C547.47 290.963 563.764 276.341 588.096 274.17C614.311 271.781 647.912 279.888 677.965 295.812C682.455 298.201 686.655 300.807 690.493 303.558C710.19 317.817 720.473 336.492 718.735 354.878C715.694 385.931 699.835 401.421 684.7 412.423C671.375 422.123 649.65 427.335 633.646 415.825Z" fill="white"/>
<path d="M686.148 309.638C703.818 322.377 712.797 338.664 711.277 354.154C708.597 381.515 695.49 395.34 680.282 406.343C668.551 414.884 650.374 418.721 637.918 409.745C635.529 408.008 633.356 405.836 631.473 403.158C622.349 389.912 612.5 366.242 586.213 347.277C584.692 346.192 583.099 345.106 581.433 344.02C577.306 341.342 573.54 338.881 570.136 336.42C559.926 329.109 553.625 322.16 554.06 311.592C554.784 293.713 570.064 283.29 588.748 281.625C613.659 279.381 645.667 287.198 674.416 302.399C678.761 304.643 682.6 307.032 686.148 309.638ZM694.91 297.549C690.783 294.582 686.293 291.759 681.513 289.225C650.229 272.649 615.107 264.253 587.516 266.786C574.988 267.944 563.836 272.143 555.363 279.019C545.515 287.054 539.794 298.418 539.287 311.085C538.563 329.398 550.149 340.328 561.519 348.58C565.067 351.186 568.833 353.647 573.395 356.543C574.843 357.484 576.219 358.424 577.595 359.365C595.555 372.322 604.896 387.957 612.428 400.552C614.818 404.533 616.99 408.225 619.307 411.627C622.059 415.68 625.463 419.082 629.301 421.905C648.346 435.658 673.692 429.723 689.189 418.431C699.835 410.686 707.221 403.303 713.015 394.689C720.401 383.542 724.746 370.802 726.267 355.674C728.222 334.538 716.853 313.329 694.91 297.549Z" fill="#323063"/>
<path d="M529.656 297.332C528.28 286.764 542.039 282.277 560.071 283.362C584.185 284.882 616.266 293.134 646.029 305.512C672.172 316.369 687.524 329.616 687.814 340.546C688.32 356.543 677.096 363.274 663.554 368.124C651.098 372.612 628.939 372.033 615.614 360.669C604.607 351.259 591.427 334.683 560.071 319.699C542.691 311.447 530.742 305.584 529.656 297.332Z" fill="#323063"/>
<path d="M437.759 752.267C268.521 752.267 189.007 644.415 185.676 639.854C185.314 639.42 185.097 638.913 184.807 638.407C171.338 609.67 164.893 582.309 165.689 557.119C166.341 536.345 171.845 517.018 182.055 499.646C197.408 473.443 219.278 458.966 227.823 453.899C237.671 380.936 258.31 327.589 289.16 295.306C316.75 266.424 346.948 260.344 367.37 260.344C375.842 260.344 382.939 261.358 387.864 262.443C397.93 223.284 416.034 209.096 430.227 209.096C435.152 209.096 439.352 210.978 441.887 214.235C443.987 216.986 444.638 220.533 443.697 223.935C443.697 224.08 443.624 224.152 443.624 224.297C450.287 217.71 456.949 214.525 463.684 214.525C468.97 214.525 473.895 216.552 477.95 220.461C482.15 224.442 482.874 231.029 479.543 235.806C479.181 236.313 478.819 236.819 478.457 237.398C480.123 237.036 481.861 236.892 483.526 236.892C492.216 236.892 499.747 241.235 503.586 248.473C504.092 249.414 504.817 250.934 504.817 252.961C504.961 257.521 501.775 260.199 500.689 261.068L500.616 261.14L501.92 260.923C507.206 259.91 512.71 258.824 518.576 258.824C519.662 258.824 520.748 258.897 521.762 258.897C532.697 259.62 542.546 264.253 550.874 268.451C559.419 272.794 567.457 278.295 574.626 284.665C583.896 292.917 592.296 303.051 599.61 314.849C605.91 324.983 611.559 336.565 616.266 349.16C620.249 359.728 623.725 371.237 626.477 383.253C628.722 392.88 630.532 402.869 631.908 412.93C632.922 420.168 633.646 427.262 634.08 433.994C634.153 434.573 634.08 435.152 634.08 436.165C634.08 436.6 634.08 437.396 634.08 438.192C688.827 478.8 701.79 521.072 702.297 522.882L702.369 523.099L702.442 523.388C713.666 573.695 705.628 617.415 678.399 653.245C662.54 674.092 640.163 692.261 611.848 707.244C589.472 719.115 563.257 729.032 534.073 736.777C484.54 749.878 443.842 752.122 442.104 752.195H441.959H441.814C440.438 752.267 439.135 752.267 437.759 752.267Z" fill="white"/>
<path d="M430.227 216.624C434.645 216.624 437.324 219.085 436.528 222.053C435.152 227.12 432.69 238.629 430.734 248.111C430.445 249.559 431.603 250.572 432.762 250.572C433.414 250.572 434.138 250.283 434.5 249.486C446.883 227.699 456.732 222.053 463.612 222.053C467.739 222.053 470.853 224.08 472.808 225.889C474.402 227.337 474.619 229.798 473.388 231.535C469.55 237.036 464.046 245.722 459.411 253.106C458.542 254.481 459.701 255.929 461.004 255.929C461.439 255.929 461.874 255.784 462.236 255.422C466.436 251.513 470.926 248.039 476.357 245.795C478.602 244.854 481.064 244.347 483.454 244.347C488.885 244.347 494.171 246.808 496.923 251.948C497.14 252.309 497.285 252.671 497.285 253.106C497.285 254.047 496.561 254.698 495.837 255.277C492.578 258.028 489.537 260.996 486.712 264.18C485.336 265.773 483.961 267.438 482.657 269.175C482.078 270.044 481.426 271.998 482.947 271.998C483.092 271.998 483.236 271.998 483.381 271.926C489.899 270.695 496.416 269.392 502.934 268.162C508.148 267.148 513.217 266.135 518.431 266.135C519.3 266.135 520.241 266.135 521.11 266.207C530.452 266.859 539.07 270.767 547.325 274.966C555.363 279.019 562.75 284.158 569.485 290.094C578.754 298.346 586.503 308.118 593.093 318.613C599.538 329.037 604.824 340.184 609.169 351.621C613.224 362.406 616.483 373.553 619.09 384.773C621.335 394.327 623.073 404.027 624.377 413.799C625.318 420.603 626.042 427.479 626.477 434.356C626.549 435.224 626.187 441.594 626.839 442.101C681.875 481.912 694.548 523.388 694.91 524.764V524.836C740.823 729.321 441.742 744.811 441.742 744.811C440.438 744.811 439.135 744.811 437.831 744.811C271.925 744.811 194.439 639.131 191.832 635.511C191.759 635.439 191.759 635.367 191.687 635.294C134.985 514.413 225.94 463.309 234.268 458.966C234.63 458.749 234.92 458.387 234.92 457.953C256.572 291.542 328.265 267.872 367.442 267.872C379.753 267.872 388.878 270.261 392.136 271.202C392.281 271.274 392.354 271.274 392.498 271.274C393.078 271.274 393.657 270.84 393.802 270.261C402.999 227.988 420.741 216.624 430.227 216.624ZM430.227 201.713C424.217 201.713 412.268 203.812 400.464 217.999C393.005 226.903 386.995 238.991 382.505 253.974C378.16 253.395 373.018 252.961 367.37 252.961C345.5 252.961 313.202 259.403 283.801 290.239C252.372 323.101 231.299 376.665 221.016 449.412C210.443 456.071 190.311 471.054 175.683 495.882C164.82 514.34 158.955 534.897 158.303 556.902C157.506 583.322 164.169 611.769 178.145 641.592C178.58 642.46 179.086 643.401 179.666 644.197C181.911 647.382 203.129 675.902 245.275 703.914C269.752 720.201 296.619 733.158 325.078 742.423C360.345 753.932 398.292 759.723 437.759 759.723C439.135 759.723 440.511 759.723 441.887 759.723H442.176H442.466C444.204 759.65 485.626 757.334 535.956 744.015C565.719 736.125 592.441 725.992 615.324 713.903C644.653 698.413 667.827 679.521 684.338 657.806C712.942 620.166 721.487 574.419 709.756 521.868C709.683 521.506 709.611 521.144 709.466 520.782C708.814 518.611 704.976 506.667 694.114 489.947C681.006 469.752 663.337 451.149 641.612 434.573C641.612 434.211 641.612 433.921 641.539 433.559C641.032 426.611 640.308 419.372 639.294 411.989C637.918 401.638 636.036 391.432 633.718 381.588C630.822 369.21 627.273 357.411 623.218 346.554C618.294 333.524 612.428 321.509 605.91 310.941C598.234 298.563 589.399 287.922 579.623 279.164C571.947 272.36 563.474 266.497 554.277 261.864C545.298 257.304 534.652 252.309 522.269 251.513C521.038 251.441 519.807 251.368 518.576 251.368C516.403 251.368 514.231 251.513 512.203 251.73C511.913 248.328 510.61 245.867 510.103 245.071C505.758 236.964 498.154 231.535 489.03 230.015C489.247 224.586 487.219 219.085 483.019 215.176C477.588 210.037 470.708 207.214 463.612 207.214C458.542 207.214 453.546 208.517 448.694 211.268C448.404 210.833 448.114 210.399 447.752 209.965C443.914 204.681 437.469 201.713 430.227 201.713Z" fill="#323063"/>
<path d="M271.273 355.384C275.907 358.063 281.339 358.786 286.118 361.175C295.243 365.808 302.122 375.145 306.685 384.048C311.102 392.59 312.985 403.013 320.516 409.6C326.599 414.957 335.144 416.404 343.183 417.418C359.766 419.444 376.639 420.313 393.222 417.707C429.72 412.061 465.856 384.628 463.177 344.165C462.887 339.605 462.018 335.044 460.715 330.629C458.18 322.377 453.908 314.632 448.332 308.045C445.435 304.643 442.249 301.603 438.773 298.852C435.586 296.319 431.386 294.654 428.562 291.759C428.272 291.469 428.055 291.252 427.838 290.89C424.869 287.126 423.565 281.191 421.537 276.992C418.93 271.419 415.961 265.99 412.63 260.851C409.227 255.567 405.461 250.572 401.188 245.939C398.364 252.599 395.829 260.633 393.729 270.261C393.585 270.984 392.788 271.491 392.064 271.274C381.346 268.017 308.423 250.21 263.669 347.856C265.552 350.897 268.086 353.502 271.273 355.384Z" fill="#6A6A9B"/>
<path d="M439.352 760.953C357.231 760.953 291.043 731.927 258.817 714.628C239.627 704.349 222.536 690.886 208.053 674.672C165.038 626.681 147.44 580.5 155.696 537.504C166.703 480.392 219.35 448.471 232.095 441.45C239.772 421.255 248.172 405.981 257.224 395.992C266.276 386.076 276.125 381.009 286.625 381.009C299.95 381.009 313.13 389.116 325.875 404.968C331.523 412.062 335.724 419.083 338.113 423.354H531.828C549.425 393.821 566.443 379.417 583.823 379.417C599.031 379.417 612.5 390.347 623.797 411.989C629.59 423.064 633.284 434.067 634.804 439.206C719.315 492.191 719.677 559.364 704.831 606.558C690.42 652.45 658.63 690.813 615.324 714.555C559.274 745.318 500.037 760.953 439.352 760.953Z" fill="#FFAF8C"/>
<path d="M583.823 386.944C613.297 386.944 628.504 444.055 628.504 444.055C709.394 493.566 712.942 555.961 697.807 604.314C683.903 648.758 652.692 685.674 611.848 708.041C550.367 741.772 491.564 753.498 439.424 753.498C360.563 753.498 296.908 726.571 262.438 708.041C244.117 698.196 227.606 685.167 213.702 669.677C82.8447 523.678 238.106 446.661 238.106 446.661C254.327 402.507 271.49 388.464 286.625 388.464C313.057 388.464 333.624 430.809 333.624 430.809H536.101C554.784 398.236 570.716 386.944 583.823 386.944ZM583.823 372.033C564.416 372.033 545.949 386.438 527.628 415.97H342.386C339.779 411.627 336.158 405.981 331.668 400.408C317.475 382.601 302.34 373.626 286.625 373.626C273.952 373.626 262.221 379.489 251.72 391.07C242.306 401.421 233.906 416.26 226.085 436.31C209.357 445.937 159.317 479.089 148.382 536.128C139.619 581.585 157.868 629.866 202.477 679.666C217.612 696.531 235.354 710.502 255.269 721.214C278.732 733.809 303.86 744.233 329.858 752.05C366.066 762.908 402.854 768.481 439.28 768.481C501.196 768.481 561.664 752.557 618.873 721.214C640.96 709.126 660.295 693.274 676.227 674.092C692.448 654.621 704.397 632.689 711.928 608.874C721.777 577.387 722.212 547.492 713.232 520.059C702.442 487.052 678.182 458.315 641.032 434.501C639.077 428.493 635.529 418.649 630.315 408.66C625.246 398.96 619.525 391.07 613.442 385.207C604.534 376.449 594.541 372.033 583.823 372.033Z" fill="#323063"/>
<path d="M299.226 419.228C299.226 419.228 303.788 436.889 271.418 452.597C239.12 468.304 233.254 506.668 261.062 509.708C288.87 512.748 328.554 475.036 299.226 419.228Z" fill="#323063"/>
<path d="M569.267 419.228C569.267 419.228 564.705 436.889 597.075 452.597C629.373 468.304 635.239 506.668 607.431 509.708C579.623 512.748 539.939 475.036 569.267 419.228Z" fill="#323063"/>
<path d="M366.283 398.381C379.162 398.381 389.602 385.385 389.602 369.355C389.602 353.324 379.162 340.329 366.283 340.329C353.405 340.329 342.965 353.324 342.965 369.355C342.965 385.385 353.405 398.381 366.283 398.381Z" fill="#323063"/>
<path d="M506.772 398.381C519.65 398.381 530.09 385.385 530.09 369.355C530.09 353.324 519.65 340.329 506.772 340.329C493.894 340.329 483.454 353.324 483.454 369.355C483.454 385.385 493.894 398.381 506.772 398.381Z" fill="#323063"/>
<path d="M235.933 674.237C218.553 664.899 202.622 653.1 188.573 639.203C195.163 648.975 203.129 659.181 212.543 669.676C226.447 685.167 242.958 698.196 261.279 708.04C318.561 738.876 456.225 792.73 610.69 708.04C637.991 693.057 661.019 671.631 677.385 645.717C665.219 656.647 651.75 666.202 637.267 674.164C459.846 771.449 301.76 709.633 235.933 674.237Z" fill="#E67B57"/>
<path d="M541.822 496.751H814.615V474.601H560.36L541.822 496.751Z" fill="#7C5840"/>
<path d="M764.358 474.601H560.36L541.822 496.751H757.913L764.358 474.601Z" fill="#7C5840"/>
<path d="M693.172 495.882C693.172 486.906 685.931 479.668 676.951 479.668H664.278C655.298 479.668 648.057 486.906 648.057 495.882H693.172Z" fill="#FFCB08"/>
<path d="M691.941 489.585C692.738 491.539 693.245 493.638 693.245 495.882H648.129C648.129 493.638 648.564 491.539 649.433 489.585H691.941Z" fill="#F19D00"/>
<path d="M645.957 450.859C645.957 448.109 645.957 445.358 645.957 442.68C645.957 439.929 641.684 439.929 641.684 442.68C641.684 445.43 641.684 448.181 641.684 450.859C641.684 453.61 645.957 453.61 645.957 450.859Z" fill="#FFED36"/>
<path d="M796.076 496.75H542.908V654.041H796.076V496.75Z" fill="#6B5936"/>
<path d="M796.077 653.969L806.215 641.881C811.646 635.366 814.615 627.187 814.615 618.718V474.601L796.077 496.751V653.969Z" fill="#3D2D1F"/>
<path d="M541.822 653.969H796.076V631.747H542.691L541.822 653.969Z" fill="#897445"/>
<path d="M541.822 653.969L560.36 631.82V474.601L541.822 496.751L541.894 654.042" fill="#3D2D1F"/>
<g opacity="0.5">
<path opacity="0.5" d="M545.153 640.578L547.832 653.679L579.116 631.24V516.149H809.184V496.823H556.667L545.153 640.578Z" fill="#3D2D1F"/>
</g>
<path d="M796.801 654.041H788.183V504.64H549.715V653.969H541.097V500.37C541.097 497.981 543.053 496.099 545.37 496.099H792.456C794.845 496.099 796.728 498.053 796.728 500.37V654.041H796.801Z" fill="#9B6C4C"/>
<path d="M796.149 683.502L716.056 778.977L462.598 778.904L541.677 683.502H796.149Z" fill="#543D2B"/>
<path d="M796.149 654.042H542.908V683.502H796.149V654.042Z" fill="#6B5936"/>
<path d="M462.815 749.516L542.908 654.042V701.526L462.815 797V749.516Z" fill="#6B5936"/>
<path d="M501.558 726.715H560.36L576.582 707.389L586.068 696.024L590.268 691.102L595.337 685.095L611.704 665.551H552.901L515.896 709.633L507.134 720.056L501.558 726.715Z" fill="#FFED36"/>
<path d="M563.836 766.309L560.36 726.715H501.63L492.94 766.309H563.836Z" fill="#FFCB08"/>
<path d="M563.836 766.31L560.36 726.715L611.704 665.551L623.29 695.445L563.836 766.31Z" fill="#F19D00"/>
<path d="M560.36 726.715C560.36 726.715 559.419 727.005 557.826 727.367C556.233 727.729 553.915 728.235 551.163 728.67C545.66 729.538 538.273 730.117 530.959 730.117C523.645 730.117 516.259 729.538 510.755 728.67C508.003 728.235 505.686 727.729 504.093 727.367C502.499 727.005 501.558 726.643 501.558 726.643C501.558 726.643 502.499 726.353 504.093 725.991C505.686 725.629 508.003 725.123 510.755 724.688C516.259 723.82 523.645 723.241 530.959 723.241C538.273 723.241 545.66 723.82 551.163 724.688C553.915 725.123 556.233 725.629 557.826 725.991C559.419 726.426 560.36 726.715 560.36 726.715Z" fill="white"/>
<path d="M572.526 726.715H631.256L649.071 705.507L657.833 695.084L677.53 671.559L682.599 665.551H623.797L611.197 680.607L600.841 692.912L594.831 700.078L591.499 704.059L572.526 726.715Z" fill="#FFED36"/>
<path d="M634.805 766.309L631.256 726.715H572.526L563.836 766.309H634.805Z" fill="#FFCB08"/>
<path d="M634.805 766.31L631.256 726.715L682.6 665.551L694.186 695.445L634.805 766.31Z" fill="#F19D00"/>
<path d="M631.256 726.715C631.256 726.715 630.315 727.005 628.722 727.367C627.128 727.729 624.811 728.235 622.059 728.67C616.556 729.538 609.169 730.117 601.855 730.117C594.541 730.117 587.154 729.538 581.651 728.67C578.899 728.235 576.582 727.729 574.988 727.367C573.395 727.005 572.454 726.643 572.454 726.643C572.454 726.643 573.395 726.353 574.988 725.991C576.582 725.629 578.899 725.123 581.651 724.688C587.154 723.82 594.541 723.241 601.855 723.241C609.169 723.241 616.556 723.82 622.059 724.688C624.811 725.123 627.128 725.629 628.722 725.991C630.387 726.426 631.256 726.715 631.256 726.715Z" fill="white"/>
<path d="M643.422 726.715H702.152L735.391 687.121L745.168 675.467L753.495 665.551H694.693L693.172 667.36L672.461 692.116L663.119 703.191L643.422 726.715Z" fill="#FFED36"/>
<path d="M705.701 766.309L702.152 726.715H643.422L634.805 766.309H705.701Z" fill="#FFCB08"/>
<path d="M705.7 766.31L702.152 726.715L753.495 665.551L765.082 695.445L705.7 766.31Z" fill="#F19D00"/>
<path d="M702.152 726.715C702.152 726.715 701.211 727.005 699.617 727.367C698.024 727.729 695.707 728.235 692.955 728.67C687.451 729.538 680.065 730.117 672.751 730.117C665.437 730.117 658.05 729.538 652.547 728.67C649.795 728.235 647.477 727.729 645.884 727.367C644.291 727.005 643.35 726.643 643.35 726.643C643.35 726.643 644.291 726.353 645.884 725.991C647.477 725.629 649.795 725.123 652.547 724.688C658.05 723.82 665.437 723.241 672.751 723.241C680.065 723.241 687.451 723.82 692.955 724.688C695.707 725.123 698.024 725.629 699.617 725.991C701.283 726.426 702.152 726.715 702.152 726.715Z" fill="white"/>
<path d="M716.056 749.516V797L787.749 711.587C793.18 705.072 796.149 696.893 796.149 688.424V654.042L771.455 683.502L716.056 749.516Z" fill="#3D2D1F"/>
<path d="M716.056 749.516H462.598V797H716.056V749.516Z" fill="#543D2B"/>
<path d="M559.998 762.401C559.998 771.376 567.24 778.615 576.219 778.615H588.82C597.8 778.615 605.041 771.376 605.041 762.401V753.353H559.998V762.401V762.401Z" fill="#3D2D1F"/>
<path d="M559.998 754.945C559.998 763.921 567.24 771.159 576.219 771.159H588.82C597.8 771.159 605.041 763.921 605.041 754.945H559.998Z" fill="#FFCB08"/>
<path d="M605.041 751.398H559.998V754.8H605.041V751.398Z" fill="#F19D00"/>
<path d="M645.957 520.854C645.957 515.209 645.957 509.49 645.957 503.844C645.957 501.094 641.684 501.094 641.684 503.844C641.684 509.49 641.684 515.209 641.684 520.854C641.684 523.605 645.957 523.677 645.957 520.854Z" fill="#FFED36"/>
<path d="M723.153 519.334C728.005 508.042 732.929 496.75 737.781 485.459C738.867 482.925 735.174 480.754 734.088 483.287C729.236 494.579 724.311 505.871 719.46 517.163C718.301 519.696 722.067 521.868 723.153 519.334Z" fill="#FFED36"/>
<path d="M710.335 549.012C713.159 542.425 715.984 535.838 718.88 529.251C719.967 526.718 716.273 524.546 715.187 527.079C712.363 533.666 709.539 540.253 706.642 546.84C705.483 549.374 709.177 551.545 710.335 549.012Z" fill="#FFED36"/>
<path d="M678.979 621.541C681.006 616.908 683.034 612.203 684.989 607.571C686.076 605.037 682.382 602.866 681.296 605.399C679.268 610.032 677.241 614.737 675.285 619.369C674.199 621.831 677.892 624.074 678.979 621.541Z" fill="#FFED36"/>
<path d="M834.892 523.967C839.671 519.552 844.451 515.136 849.23 510.721C851.258 508.839 848.216 505.799 846.189 507.681C841.409 512.096 836.63 516.511 831.85 520.927C829.823 522.809 832.864 525.849 834.892 523.967Z" fill="#FFED36"/>
<path d="M812.008 545.103C815.846 541.557 819.684 538.01 823.522 534.463C825.55 532.581 822.509 529.541 820.481 531.423C816.643 534.97 812.805 538.516 808.967 542.063C806.939 543.945 809.98 546.985 812.008 545.103Z" fill="#FFED36"/>
<path d="M749.585 602.793C754.437 598.306 759.289 593.818 764.141 589.33C766.168 587.448 763.127 584.408 761.099 586.29C756.247 590.778 751.395 595.266 746.544 599.753C744.516 601.635 747.557 604.603 749.585 602.793Z" fill="#FFED36"/>
<path d="M837.788 655.706C847.71 653.462 857.558 651.218 867.479 648.975C870.159 648.396 869 644.197 866.321 644.849C856.4 647.093 846.551 649.337 836.63 651.58C833.95 652.16 835.037 656.285 837.788 655.706Z" fill="#FFED36"/>
<path d="M813.094 661.28C816.136 660.556 819.25 659.905 822.291 659.181C824.971 658.602 823.812 654.403 821.133 655.055C818.091 655.779 814.977 656.43 811.936 657.154C809.256 657.733 810.415 661.931 813.094 661.28Z" fill="#FFED36"/>
<path d="M590.703 571.741C581.651 550.822 572.671 529.903 563.619 509.056C562.533 506.523 558.84 508.694 559.926 511.228C568.978 532.147 577.958 553.066 587.01 573.912C588.096 576.446 591.789 574.202 590.703 571.741Z" fill="#FFED36"/>
<path d="M606.924 609.236C604.317 603.3 601.783 597.292 599.176 591.357C598.089 588.823 594.396 590.995 595.482 593.528C598.089 599.464 600.624 605.472 603.231 611.407C604.317 613.941 608.01 611.769 606.924 609.236Z" fill="#FFED36"/>
<path d="M467.595 532.798C458.542 524.401 449.418 516.005 440.366 507.681C438.338 505.799 435.297 508.839 437.324 510.721C446.376 519.117 455.501 527.514 464.553 535.838C466.581 537.72 469.622 534.68 467.595 532.798Z" fill="#FFED36"/>
<path d="M521.183 582.381C516.983 578.545 512.783 574.636 508.655 570.8C506.627 568.918 503.586 571.958 505.613 573.84C509.813 577.676 514.014 581.585 518.141 585.421C520.169 587.303 523.283 584.263 521.183 582.381Z" fill="#FFED36"/>
<path d="M564.271 622.12C560.288 618.428 556.305 614.809 552.322 611.118C550.294 609.236 547.253 612.276 549.281 614.158C553.263 617.849 557.246 621.469 561.229 625.16C563.257 627.042 566.298 624.002 564.271 622.12Z" fill="#FFED36"/>
<path d="M441.452 649.554C434.428 647.961 427.476 646.369 420.451 644.776C417.772 644.197 416.613 648.323 419.293 648.902C426.317 650.495 433.269 652.087 440.293 653.68C443.045 654.331 444.204 650.205 441.452 649.554Z" fill="#FFED36"/>
<path d="M514.665 666.202C494.316 661.569 473.967 656.937 453.546 652.304C450.866 651.725 449.708 655.851 452.387 656.43C472.736 661.063 493.085 665.695 513.507 670.328C516.186 670.979 517.345 666.853 514.665 666.202Z" fill="#FFED36"/>
<path d="M787.097 653.969H796.076V653.535L787.242 653.824L787.097 653.969Z" fill="#B26950"/>
<path d="M462.163 751.398C462.887 752.991 464.481 754.004 466.219 754.004H712.435C713.739 754.004 715.042 753.425 715.911 752.412L716.056 752.267L773.7 683.574L796.149 656.792V654.114H787.097L762.258 683.574L710.408 745.028H475.922L542.908 665.406L552.394 654.186L546.601 654.114L542.256 654.042H541.894H540.808L462.743 746.549C461.656 747.924 461.367 749.806 462.163 751.398Z" fill="#897445"/>
<path d="M735.391 687.121L745.168 675.395C721.053 681.403 696.793 686.976 672.389 692.043L663.119 703.191C687.307 698.341 711.421 692.984 735.391 687.121Z" fill="white"/>
<path d="M600.841 692.912C626.332 685.601 651.895 678.507 677.458 671.631L682.527 665.623H665.22C647.188 670.545 629.156 675.54 611.124 680.607L600.841 692.912Z" fill="white"/>
<path d="M507.134 720.056C530.38 716.582 553.553 712.311 576.582 707.389L586.068 696.024C562.822 701.308 539.432 705.796 515.896 709.633L507.134 720.056Z" fill="white"/>
<path d="M555.436 490.091C554.495 487.848 553.481 485.604 552.539 483.287C552.105 482.202 550.512 481.984 549.57 482.491C548.484 483.143 548.339 484.373 548.774 485.459C549.715 487.703 550.729 489.947 551.67 492.263C552.105 493.349 553.698 493.566 554.639 493.059C555.798 492.335 555.943 491.105 555.436 490.091Z" fill="#FFED36"/>
<path d="M225.143 240.148C202.767 246.953 175.248 266.424 176.335 288.284C176.335 288.284 181.766 277.209 196.249 262.008C209.864 247.821 223.478 240.945 225.143 240.148Z" fill="black"/>
<path d="M295.17 226.251C295.388 225.165 295.533 224.079 295.75 222.921L291.477 222.849C166.92 231.028 154.03 285.389 179.883 317.31C195.091 336.13 220.799 355.022 275.98 367.255C277.356 367.545 278.732 367.834 280.108 368.124C287.712 369.716 295.822 371.236 304.512 372.539C339.345 377.896 383.591 381.08 440.221 381.08V375.29C302.34 375.29 241.582 354.009 206.967 330.918C209.429 332.076 288.581 369.065 440.221 369.065V305.077C389.674 305.077 342.965 297.694 313.782 285.606C285.901 274.024 272.576 263.384 272.359 259.33C272.142 255.204 291.043 252.019 291.043 252.019H291.332C292.274 243.985 293.65 235.299 295.17 226.251ZM176.335 288.356C175.248 266.424 202.694 247.025 225.144 240.221C225.216 240.221 225.216 240.221 225.288 240.148C225.288 240.148 225.216 240.148 225.144 240.221C223.478 241.017 209.864 247.894 196.322 262.153C181.766 277.209 176.335 288.356 176.335 288.356Z" fill="#1C1C1C"/>
<path d="M440.149 369.137C288.508 369.137 209.284 332.149 206.895 330.991C241.582 354.081 302.267 375.362 440.149 375.362V369.137Z" fill="black"/>
<path d="M290.97 252.02C290.97 252.02 272.07 255.204 272.287 259.33C272.504 263.384 285.901 274.024 313.709 285.606C342.821 297.694 389.602 305.077 440.149 305.077V298.925C324.644 298.925 289.956 263.601 289.956 263.601C290.319 259.909 290.681 256.001 291.26 252.02H290.97Z" fill="black"/>
<path d="M423.42 239.787C351.076 237.326 309.074 219.447 297.415 213.729C297.053 215.755 296.691 217.71 296.329 219.664C309.219 227.482 328.12 233.127 350.931 237.615C350.931 237.615 326.889 242.827 295.17 226.251C293.65 235.299 292.274 243.985 291.26 252.092C290.753 256.073 290.319 259.982 289.956 263.674C289.956 263.674 324.644 298.997 440.149 298.997V240.149C434.428 240.076 428.852 240.004 423.42 239.787Z" fill="#282828"/>
<path d="M295.75 222.921C295.532 224.007 295.388 225.165 295.17 226.251C326.889 242.827 350.931 237.615 350.931 237.615C328.12 233.2 309.219 227.554 296.329 219.664C296.112 220.75 295.967 221.836 295.75 222.921Z" fill="#1C1C1C"/>
<path d="M298.864 205.911C298.357 208.516 297.85 211.195 297.415 213.728C309.074 219.446 351.076 237.325 423.42 239.786C346.514 231.969 318.054 216.334 298.864 205.911Z" fill="black"/>
<path d="M346.659 92.1229C345.717 92.9915 330.582 106.527 326.961 120.642C323.268 135.264 313.057 185.498 313.057 185.498L319.14 116.878C319.213 116.878 324.282 103.994 346.659 92.1229ZM314.65 111.449C312.261 137.653 305.019 172.759 298.864 205.911C318.054 216.334 346.586 231.969 423.42 239.787C428.852 240.004 434.428 240.076 440.149 240.076V110.436C388.153 110.436 384.46 79.8899 384.46 79.8899C395.395 87.7074 406.837 94.5115 440.149 94.5115V90.458C433.269 90.8199 422.841 90.5304 410.965 87.056C397.35 83.0748 387.502 76.6326 381.708 72.1448C372.004 71.7829 359.911 72.2172 336.375 89.1551C326.092 96.4659 319.14 104.935 314.65 111.449Z" fill="#1C1C1C"/>
<path d="M319.213 116.878L313.13 185.499C313.13 185.499 323.341 135.192 327.034 120.642C330.655 106.527 345.79 92.9917 346.731 92.123C324.282 103.994 319.213 116.878 319.213 116.878Z" fill="#282828"/>
<path d="M384.46 79.8896C384.46 79.8896 388.153 110.436 440.149 110.436V94.5113C406.837 94.5113 395.395 87.6348 384.46 79.8896Z" fill="black"/>
<path d="M655.226 240.149C677.603 246.953 705.121 266.424 704.035 288.284C704.035 288.284 698.604 277.21 684.12 262.009C670.506 247.822 656.892 240.945 655.226 240.149Z" fill="black"/>
<path d="M589.11 252.092H589.399C589.399 252.092 608.3 255.277 608.083 259.403C607.866 263.457 594.468 274.097 566.66 285.678C537.477 297.694 490.695 305.077 440.149 305.077V369.137C591.789 369.137 671.013 332.149 673.403 330.991C638.715 354.082 578.03 375.363 440.149 375.363V381.153C496.706 381.153 540.953 377.968 575.857 372.612C584.547 371.237 592.658 369.789 600.262 368.196C601.638 367.907 603.014 367.617 604.39 367.328C659.643 355.023 685.279 336.203 700.486 317.383C726.339 285.461 713.377 231.101 588.892 222.921L584.62 222.994C584.837 224.08 584.982 225.238 585.199 226.323C586.72 235.299 588.096 243.985 589.11 252.092ZM684.048 262.081C670.506 247.894 656.819 241.017 655.226 240.149C655.154 240.149 655.081 240.076 655.081 240.076C655.154 240.076 655.154 240.076 655.226 240.149C677.603 246.953 705.121 266.424 704.035 288.284C703.963 288.357 698.531 277.21 684.048 262.081Z" fill="#1C1C1C"/>
<path d="M440.149 369.138C591.789 369.138 671.013 332.149 673.403 330.991C638.715 354.082 578.03 375.363 440.149 375.363V369.138Z" fill="black"/>
<path d="M589.399 252.02C589.399 252.02 608.3 255.204 608.083 259.33C607.866 263.384 594.468 274.024 566.66 285.606C537.477 297.694 490.695 305.077 440.149 305.077V298.925C555.653 298.925 590.341 263.601 590.341 263.601C589.979 259.909 589.617 256.001 589.037 252.02H589.399Z" fill="black"/>
<path d="M456.949 239.787C529.293 237.326 571.295 219.447 582.954 213.729C583.316 215.755 583.678 217.71 584.04 219.664C571.15 227.482 552.25 233.127 529.438 237.615C529.438 237.615 553.481 242.827 585.199 226.251C586.72 235.299 588.096 243.985 589.11 252.092C589.617 256.073 590.051 259.982 590.413 263.674C590.413 263.674 555.726 298.997 440.221 298.997V240.149C445.942 240.076 451.518 240.004 456.949 239.787Z" fill="#282828"/>
<path d="M584.547 222.921C584.765 224.007 584.91 225.165 585.127 226.251C553.408 242.827 529.366 237.615 529.366 237.615C552.177 233.2 571.078 227.554 583.968 219.664C584.258 220.75 584.403 221.836 584.547 222.921Z" fill="#1C1C1C"/>
<path d="M581.506 205.911C582.013 208.517 582.52 211.195 582.954 213.729C571.295 219.447 529.293 237.326 456.949 239.787C533.783 231.969 562.315 216.334 581.506 205.911Z" fill="black"/>
<path d="M561.157 116.878L567.24 185.499C567.24 185.499 557.029 135.192 553.336 120.642C549.715 106.528 534.58 92.9917 533.638 92.1231C556.015 103.994 561.157 116.878 561.157 116.878ZM543.922 89.0106C520.386 72.0727 508.293 71.6384 498.589 72.0003C492.795 76.4881 483.019 83.0027 469.332 86.9114C457.384 90.4583 447.028 90.6754 440.149 90.3135V94.367C473.46 94.367 484.974 87.5629 495.837 79.7454C495.837 79.7454 492.144 110.292 440.149 110.292V239.932C445.869 239.932 451.518 239.859 456.877 239.642C533.783 231.969 562.315 216.334 581.506 205.911C575.35 172.831 568.036 137.653 565.719 111.45C561.229 104.935 554.277 96.4661 543.922 89.0106Z" fill="#1C1C1C"/>
<path d="M561.157 116.878L567.24 185.499C567.24 185.499 557.029 135.192 553.336 120.642C549.715 106.528 534.58 92.9917 533.638 92.123C556.015 103.994 561.157 116.878 561.157 116.878Z" fill="#282828"/>
<path d="M495.909 79.8906C495.909 79.8906 492.216 110.437 440.221 110.437V94.5122C473.46 94.5122 484.974 87.6357 495.909 79.8906Z" fill="black"/>
<path d="M511.117 595.41C507.206 599.753 500.544 600.622 495.547 597.22C432.979 553.934 379.536 587.81 377.291 589.258C371.787 592.804 364.473 591.357 360.852 585.856C357.231 580.427 358.752 573.116 364.183 569.497C366.935 567.687 432.834 524.981 509.017 577.676C514.376 581.44 515.751 588.823 511.986 594.18C511.769 594.614 511.406 595.048 511.117 595.41Z" fill="#323063"/>
<path d="M402.637 576.229C400.174 583.105 332.103 642.171 315.085 658.674V658.747C310.812 662.872 308.133 665.478 308.133 665.478C307.843 665.478 295.098 665.406 286.48 653.463C277.718 641.447 283.149 635.367 283.149 635.367L287.784 632.037H287.856L384.677 559.58C394.526 556.323 405.606 567.832 402.637 576.229Z" fill="#3C2415"/>
<path d="M315.085 658.747V658.819C310.812 662.945 308.133 665.551 308.133 665.551C307.843 665.551 295.098 665.479 286.48 653.535C278.297 642.316 282.497 636.308 283.077 635.511L283.149 635.439L287.784 632.109H287.856C297.343 630.01 314.361 648.685 315.085 658.747Z" fill="#F7FAFB"/>
<path d="M308.205 665.478C307.916 665.478 295.17 665.406 286.553 653.463C278.37 642.243 282.57 636.235 283.149 635.439L283.222 635.366C286.263 633.195 296.184 638.262 301.398 645.645C306.467 653.101 310.523 661.932 308.205 665.478Z" fill="#ED1C24"/>
<path d="M262.076 632.833C250.924 623.785 241.872 611.407 239.627 597.22C237.02 581.078 243.537 565.009 247.013 549.012C250.489 533.015 250.055 513.761 237.382 503.41C222.247 491.032 196.466 496.895 183.721 482.057C174.886 471.706 176.842 455.854 181.838 443.186C186.835 430.447 194.294 418.286 195.018 404.606C195.96 387.668 185.894 371.598 172.424 361.32C158.955 351.041 142.371 345.685 125.933 341.414C113.332 338.157 100.225 335.189 89.9415 327.227C87.1897 325.128 84.8724 322.594 82.7723 319.844C85.8862 327.372 90.7381 334.176 96.5315 339.822C102.832 345.974 110.073 351.114 117.967 354.878C126.874 359.148 136.505 361.827 145.485 365.952C154.465 370.078 163.082 376.086 167.572 384.917C173.003 395.63 171.265 408.732 166.631 419.806C167.355 411.048 162.358 402.651 155.623 397.005C140.85 384.628 117.315 378.185 98.704 374.711C90.376 373.119 81.686 372.178 74.2271 368.196C66.6958 364.215 60.5404 356.253 61.699 347.856C57.7161 364.071 61.0473 381.515 68.3614 396.499C73.1409 406.27 79.586 415.174 86.6828 423.426C93.4899 431.315 99.573 435.152 108.408 440.074C124.05 448.832 143.457 454.985 152.22 472.068C156.203 479.885 157.289 489.078 162.575 496.027C168.079 503.265 176.769 506.523 185.387 509.925C191.252 511.662 196.756 514.34 201.463 518.176C196.756 514.557 191.108 512.241 185.387 509.925C174.597 506.595 162.431 506.161 150.989 506.305C131.798 506.523 110.942 507.102 95.4452 495.737C81.2515 485.386 75.5306 468.231 68.8683 451.438C63.3646 442.173 55.0367 434.645 44.826 431.388C31.284 427.045 14.773 431.388 6.66238 443.114C1.0863 451.149 -0.144785 461.282 4.81762e-05 470.837C0.144881 480.826 1.73805 490.96 6.58996 499.719C13.3971 512.169 26.1425 520.493 39.612 524.981C65.7544 533.739 98.6315 534.68 126.005 533.811C133.247 533.594 140.488 533.015 147.73 532.87C162.648 532.509 180.245 532.291 193.497 540.254C212.471 551.618 204.722 578.111 205.084 596.351C205.301 608.874 207.257 621.758 214.643 632.182C228.692 651.87 255.196 662.583 278.732 664.031C287.06 664.537 296.474 662.511 298.936 653.969C286.046 647.961 273.083 641.809 262.076 632.833Z" fill="#F9F7F6"/>
</g>
<defs>
<clipPath id="clip0">
<rect width="869" height="725" fill="white" transform="translate(0 72)"/>
</clipPath>
</defs>
</svg>
