<svg width="81" height="60" viewBox="0 0 81 60" fill="none" xmlns="http://www.w3.org/2000/svg">
<path d="M75.5607 20.3904L73.8055 20.6428L53.8758 23.8885C53.8026 23.8885 53.7295 23.9967 53.7661 24.0689C53.9123 24.3574 54.1683 25.0426 54.1683 25.9802C54.1683 29.3702 51.316 32.111 47.8055 32.111C44.3315 32.111 41.5157 29.4063 41.4426 26.0884C41.3695 26.0163 41.3694 26.0163 41.2963 25.9442L3.63105 32.2192C2.97283 32.4356 2.75342 32.5438 2.75342 33.4093V39.5401C2.75342 39.6123 2.82655 39.6844 2.89969 39.6844C5.31319 39.7926 7.28788 41.8121 7.28788 44.3005C7.28788 46.7889 5.34976 48.8445 2.89969 48.9167C2.82655 48.9167 2.75342 48.9888 2.75342 49.0609V56.5982C2.75342 56.6703 2.82655 56.7425 2.89969 56.7425C6.70279 56.0933 35.0797 51.369 56.143 47.8708C56.4721 47.7987 56.8012 47.7626 57.1304 47.6905C57.2035 47.6905 57.2401 47.6184 57.2401 47.5462C57.1304 47.1135 57.0938 46.6447 57.0938 46.1758C57.0938 42.6416 60.0924 39.7565 63.8223 39.7565C67.2232 39.7565 70.0389 42.1728 70.4778 45.3464C70.4778 45.4185 70.5509 45.4906 70.624 45.4546C72.8181 45.0939 74.5003 44.8054 75.5242 44.6251C75.5973 44.6251 75.6339 44.553 75.6339 44.4808C75.6339 44.1563 75.6339 43.6153 75.6339 42.894C75.6704 38.314 75.7801 26.1606 75.7801 21.292C75.7801 21.0035 75.7436 20.715 75.6704 20.4264C75.707 20.4264 75.6339 20.3904 75.5607 20.3904Z" fill="#FFC964"/>
<path d="M6.04459 29.2621L41.9546 23.3838C41.9911 23.3838 42.0277 23.3477 42.0643 23.3116C43.1248 21.3642 45.2823 20.8954 46.8913 20.679C47.1838 20.6429 47.5129 20.6069 47.8055 20.6069C49.2317 20.6069 50.6212 21.0036 51.7183 21.7248C51.7549 21.7609 51.7914 21.7609 51.828 21.7609L73.4032 18.2267L74.2809 18.0824C74.3174 17.9382 74.3175 17.9742 74.354 17.866C72.1965 15.6301 69.9293 13.7187 67.662 12.0598C67.6255 12.0237 67.5523 12.0237 67.5158 12.0598C66.4918 12.6729 65.212 13.0335 63.7858 13.0335C60.4215 13.0335 57.7886 11.014 57.7886 8.45345C57.7886 7.87643 57.9349 7.33548 58.1543 6.83059C58.1909 6.75846 58.1543 6.68634 58.0812 6.65027C50.2556 3.33242 42.9419 2.64722 38.1515 2.64722C37.7127 2.64722 37.347 2.75541 37.1276 2.93573C36.7985 3.22423 23.3048 14.4761 19.0629 18.0824C18.88 18.2267 19.0263 18.3709 19.0994 18.4431C19.9039 19.1643 20.3428 20.0659 20.3428 21.0396C20.3428 22.5904 19.1726 23.9968 17.2345 24.7542C16.2837 25.1148 15.1501 25.3312 14.053 25.3312C13.1023 25.3312 12.1149 25.1869 11.2738 24.8984C11.2373 24.8984 11.0179 24.8624 10.9447 24.9345C10.835 25.0427 10.5425 25.2591 10.1037 25.6197C9.2626 26.3049 7.28791 27.8917 5.89832 29.0457C5.82518 29.1179 5.89832 29.2982 6.04459 29.2621ZM37.3104 9.7878C40.6747 9.7878 43.3076 11.8074 43.3076 14.3679C43.3076 16.9284 40.6747 18.9479 37.3104 18.9479C33.9461 18.9479 31.3132 16.9284 31.3132 14.3679C31.3132 11.8074 33.9461 9.7878 37.3104 9.7878Z" fill="#FFE183"/>
<path d="M25.2795 33.5537C22.9391 33.5537 21.0376 35.3569 21.0376 37.5207C21.0376 39.7206 22.9391 41.4877 25.2795 41.4877C27.6199 41.4877 29.5214 39.6845 29.5214 37.5207C29.5214 35.3569 27.6199 33.5537 25.2795 33.5537Z" fill="#F3A334"/>
<path d="M22.7929 37.5568C22.7929 35.6455 24.2556 34.0587 26.1572 33.662C25.8646 33.5898 25.5721 33.5898 25.2795 33.5898C22.9391 33.5898 21.0376 35.393 21.0376 37.5568C21.0376 39.7567 22.9391 41.5238 25.2795 41.5238C25.5721 41.5238 25.8646 41.4878 26.1572 41.4517C24.219 41.055 22.7929 39.4682 22.7929 37.5568Z" fill="#E87E04"/>
<path d="M47.8057 23.0952C47.5863 23.0952 47.4034 23.0952 47.184 23.1313C44.8436 23.4198 44.2951 24.1411 44.0757 24.8623C43.966 25.223 43.9294 25.3312 43.9294 26.0164C43.9294 28.072 45.6847 29.7309 47.8057 29.7309C49.9632 29.7309 51.6819 28.072 51.6819 26.0164C51.6819 25.0426 51.1334 24.3935 50.658 24.0329C49.9632 23.4198 48.9027 23.0952 47.8057 23.0952Z" fill="#FFC964"/>
<path d="M45.831 25.728C45.831 24.7543 46.1967 23.8527 46.8183 23.1675C44.8071 23.4921 44.2951 24.1412 44.0757 24.8264C43.966 25.187 43.9294 25.2952 43.9294 25.9804C43.9294 28.0361 45.6847 29.695 47.8057 29.695C48.2079 29.695 48.5736 29.6228 48.9027 29.5507C47.1474 29.0819 45.831 27.5312 45.831 25.728Z" fill="#F3A334"/>
<path d="M37.3103 16.4957C39.1753 16.4957 40.8574 15.486 40.8574 14.368C40.8574 13.3582 39.3947 12.2402 37.3103 12.2402C35.2259 12.2402 33.7632 13.3582 33.7632 14.368C33.7632 15.486 35.4088 16.4957 37.3103 16.4957Z" fill="#FFC964"/>
<path d="M76.2556 16.3153C74.0981 14.0794 71.7943 12.0598 69.3076 10.2566C68.9419 10.0042 68.6128 9.75174 68.2471 9.49929C67.7718 9.17472 67.1501 9.24685 66.7113 9.64355C66.3456 9.96812 65.7971 10.2566 65.212 10.4369C64.7732 10.5451 64.2978 10.6173 63.7858 10.6173C61.9208 10.6173 60.2387 9.60748 60.2387 8.48951C60.2387 8.23707 60.3118 8.02069 60.4581 7.76824C60.6775 7.44367 61.0066 7.15516 61.4455 6.90272C61.994 6.61421 61.9574 5.82081 61.3723 5.5323C60.9335 5.31592 60.4581 5.09954 59.9827 4.88316C57.8618 3.9455 55.6677 3.11604 53.3639 2.43083C48.4637 0.988292 43.3076 0.230957 38.1881 0.230957C37.1642 0.230957 36.2134 0.519466 35.5552 1.09648C35.2626 1.34893 19.648 14.4039 16.5763 16.9645C16.2837 17.2169 16.0277 17.5054 15.8815 17.7579C15.4792 18.4791 15.8449 19.3086 16.5763 19.6692C17.3808 20.0299 17.783 20.6069 17.783 21.0757C17.783 21.5806 17.3076 22.0855 16.3569 22.4461C15.6621 22.6986 14.8941 22.8428 14.0896 22.8428C13.3948 22.8428 12.7 22.7346 12.0784 22.5543C12.0784 22.5543 11.5299 22.3379 11.091 22.3379C10.5059 22.3379 9.92085 22.5904 9.37233 23.0231C9.26262 23.0953 8.97008 23.3477 8.56783 23.6723C5.38639 26.2689 3.15573 28.1081 2.60721 28.7572C1.91242 29.5506 1.51016 30.1998 1.36389 30.4162C1.07135 30.7768 0.266846 32.039 0.266846 34.0586V40.3336C0.266846 41.5959 1.10791 42.1729 1.98555 42.1729C2.16839 42.1729 2.31467 42.1368 2.3878 42.1368H2.42437C2.49751 42.1368 2.60721 42.1368 2.68035 42.1368C3.81396 42.1368 4.76474 43.1105 4.76474 44.3367C4.76474 45.5629 3.81396 46.5366 2.68035 46.5366C2.60721 46.5366 2.53407 46.5366 2.46094 46.5366C2.3878 46.5366 2.31467 46.5366 2.20496 46.5366C1.25419 46.5366 0.266846 47.2218 0.266846 48.4119V57.1393C0.266846 58.3654 1.21762 59.3391 2.46094 59.3391C2.60721 59.3391 2.75348 59.3391 2.89976 59.3031C3.81396 59.1588 35.5552 53.8575 56.5453 50.3954C57.167 50.2872 57.7886 50.179 58.3737 50.1069H58.4469C59.5805 49.9266 60.2021 48.7365 59.7999 47.6906C59.7633 47.6185 59.7267 47.5103 59.6902 47.4382C59.5805 47.0775 59.5073 46.7169 59.5073 46.3563C59.5073 44.1564 61.4089 42.3893 63.7493 42.3893C65.9799 42.3893 67.8083 44.0121 67.9912 46.0678C67.9912 46.1759 67.9912 46.2481 67.9912 46.3563V46.3923C67.9912 47.5103 69.0151 48.3758 70.1121 48.1594H70.1853C73.001 47.6906 75.122 47.33 76.1824 47.1497C77.0235 47.0054 78.0474 46.5366 78.0474 44.9858C78.0474 44.9137 78.0474 44.2285 78.0474 43.1105C78.084 38.5305 78.1937 26.341 78.1937 21.4724C78.1937 20.1741 77.7183 18.9119 77.6086 18.6594C77.6086 18.2988 77.1698 17.253 76.2556 16.3153ZM5.93492 29.0457C7.32451 27.8557 9.29919 26.2689 10.1403 25.6197C10.5791 25.2591 10.8716 25.0066 10.9813 24.9345C11.0545 24.8984 11.2739 24.8984 11.3104 24.8984C12.1515 25.1869 13.1389 25.3312 14.0896 25.3312C15.2232 25.3312 16.3203 25.1148 17.2711 24.7542C19.2092 23.9608 20.3794 22.5904 20.3794 21.0036C20.3794 20.0299 19.9405 19.1643 19.136 18.407C19.0629 18.3349 18.9166 18.1906 19.0995 18.0464C23.378 14.4761 36.8351 3.18817 37.1642 2.89966C37.3836 2.71934 37.7493 2.61115 38.1881 2.61115C42.9419 2.61115 50.2556 3.29636 58.1177 6.61421C58.1909 6.65027 58.2275 6.7224 58.1909 6.79453C57.9349 7.29942 57.8252 7.84037 57.8252 8.41739C57.8252 10.9779 60.4581 12.9975 63.8224 12.9975C65.2486 12.9975 66.5284 12.6368 67.5523 12.0237C67.5889 11.9877 67.662 11.9877 67.6986 12.0237C69.9658 13.6827 72.1965 15.594 74.3906 17.83C74.354 17.9742 74.354 17.9382 74.3175 18.0464L73.4033 18.2627L51.828 21.797C51.7915 21.797 51.7549 21.797 51.7183 21.7609C50.6213 21.0396 49.2317 20.6429 47.8055 20.6429C47.4764 20.6429 47.1839 20.679 46.8913 20.7151C45.2823 20.9314 43.0882 21.4003 42.0643 23.3477C42.0277 23.3838 42.0277 23.4198 41.9546 23.4198L6.04462 29.2621C5.89835 29.2982 5.82521 29.1179 5.93492 29.0457ZM50.6944 24.0329C51.1698 24.3935 51.7183 25.0427 51.7183 26.0164C51.7183 28.072 49.963 29.731 47.8421 29.731C45.6846 29.731 43.9659 28.072 43.9659 26.0164C43.9659 25.3312 44.0024 25.223 44.1121 24.8624C44.3315 24.1411 44.8801 23.4198 47.2204 23.1313C47.4398 23.0953 47.6227 23.0953 47.8421 23.0953C48.9026 23.0953 49.963 23.4198 50.6944 24.0329ZM75.6705 42.9302C75.6705 43.6515 75.6705 44.1925 75.6705 44.517C75.6705 44.5891 75.6339 44.6252 75.5608 44.6613C74.5369 44.8416 72.8547 45.1301 70.6606 45.4907C70.5875 45.4907 70.5144 45.4547 70.5144 45.3825C70.0756 42.245 67.2598 39.7927 63.859 39.7927C60.1656 39.7927 57.1304 42.6778 57.1304 46.212C57.1304 46.6808 57.2035 47.1136 57.2767 47.5824C57.2767 47.6546 57.2401 47.7267 57.167 47.7267C56.8379 47.7988 56.5087 47.8349 56.1796 47.907C35.1529 51.4052 6.73942 56.1295 2.93632 56.7786C2.86319 56.7786 2.79005 56.7426 2.79005 56.6344V49.0971C2.79005 49.025 2.86319 48.9528 2.93632 48.9528C5.34983 48.8447 7.32451 46.8251 7.32451 44.3367C7.32451 41.8483 5.38639 39.7927 2.93632 39.7206C2.86319 39.7206 2.79005 39.6484 2.79005 39.5763V33.4094C2.79005 32.5439 3.00946 32.4357 3.66769 32.2193L41.3329 25.9803C41.4061 26.0525 41.4061 26.0525 41.4792 26.1246C41.5523 29.4424 44.3681 32.1472 47.8421 32.1472C51.3526 32.1472 54.205 29.4064 54.205 26.0164C54.205 25.0788 53.949 24.3935 53.8027 24.105C53.7661 24.0329 53.8027 23.9247 53.9124 23.9247L73.8421 20.679L75.5974 20.4266C75.6705 20.4266 75.7436 20.4626 75.7436 20.5347C75.8168 20.8233 75.8533 21.1118 75.8533 21.4003C75.8168 26.1967 75.7071 38.3502 75.6705 42.9302Z" fill="#323063"/>
<path d="M37.3104 18.9118C40.6747 18.9118 43.3076 16.8923 43.3076 14.3318C43.3076 11.7713 40.6747 9.75171 37.3104 9.75171C33.9462 9.75171 31.3132 11.7713 31.3132 14.3318C31.3132 16.8923 33.9462 18.9118 37.3104 18.9118ZM37.3104 12.204C39.3948 12.204 40.8576 13.322 40.8576 14.3318C40.8576 15.4497 39.212 16.4595 37.3104 16.4595C35.4455 16.4595 33.7633 15.4497 33.7633 14.3318C33.7633 13.3581 35.226 12.204 37.3104 12.204Z" fill="#323063"/>
<path d="M25.2796 31.1375C21.5862 31.1375 18.551 34.0225 18.551 37.5568C18.551 41.091 21.5496 43.9761 25.2796 43.9761C28.973 43.9761 32.0081 41.091 32.0081 37.5568C32.0081 34.0225 28.973 31.1375 25.2796 31.1375ZM25.2796 41.5238C22.9392 41.5238 21.0377 39.7206 21.0377 37.5568C21.0377 35.3569 22.9392 33.5898 25.2796 33.5898C27.6199 33.5898 29.5215 35.393 29.5215 37.5568C29.5215 39.7566 27.6199 41.5238 25.2796 41.5238Z" fill="#323063"/>
<path d="M35.1162 13.8269C35.1162 13.286 35.5185 12.745 36.2133 12.3123C34.7505 12.6008 33.7632 13.5024 33.7632 14.3318C33.7632 15.4498 35.4088 16.4596 37.3103 16.4596C38.2245 16.4596 39.1021 16.2071 39.7604 15.8465C39.3947 15.9186 39.029 15.9547 38.6633 15.9547C36.7618 15.9547 35.1162 14.981 35.1162 13.8269Z" fill="#F3A334"/>
<path d="M2.86331 48.989C2.79018 48.989 2.71704 49.0611 2.71704 49.1332V56.6705C2.71704 56.7426 2.79018 56.8148 2.86331 56.8148C3.41184 56.7426 4.43575 56.5623 5.82534 56.3099V47.6907C5.09397 48.4119 4.0335 48.9168 2.86331 48.989Z" fill="#F3A334"/>
<path d="M3.63105 32.2554C2.97283 32.4718 2.75342 32.58 2.75342 33.4455V39.5763C2.75342 39.6484 2.82655 39.7206 2.89969 39.7206C4.06987 39.7566 5.13035 40.2615 5.89828 41.0549V31.8948L3.63105 32.2554Z" fill="#F3A334"/>
<path d="M38.1881 2.68335C37.7493 2.68335 37.3836 2.79154 37.1642 2.97186C36.8351 3.26037 23.3414 14.5122 19.0995 18.1186C18.9167 18.2628 19.063 18.4071 19.1361 18.4792C19.6115 18.912 19.9772 19.3808 20.16 19.9217L40.6382 2.75548C39.7606 2.71941 38.9561 2.68335 38.1881 2.68335Z" fill="#F3A334"/>
<path d="M11.3104 24.8984C11.2739 24.8984 11.0545 24.8624 10.9813 24.9345C10.8716 25.0427 10.5791 25.2591 10.1402 25.6197C9.29918 26.3049 7.32449 27.8917 5.9349 29.0457C5.8252 29.1179 5.89833 29.2982 6.04461 29.2982L9.66486 28.7212L13.7239 25.3312C12.8829 25.2951 12.0418 25.1509 11.3104 24.8984Z" fill="#F3A334"/>
<path d="M79.9002 47.1809C79.9002 53.1809 75.0002 58.0809 69.0002 58.0809C63.0002 58.0809 58.2002 53.1809 58.2002 47.1809C58.2002 41.1809 63.1002 36.3809 69.0002 36.3809C75.0002 36.3809 79.9002 41.1809 79.9002 47.1809Z" fill="#E67B57"/>
<path d="M69 52.681C69 52.781 68.7 52.881 68.1 52.981C67.5 53.081 66.8 53.081 66.2 53.081C65.6 53.081 65.2 53.081 65 52.981C64.8 52.881 64.7 52.781 64.7 52.681V42.681C64.7 42.181 66.2 41.981 69.2 41.981C71 41.981 72.1999 42.081 72.7999 42.381C73.4999 42.681 74 43.081 74.2 43.581C74.5 44.181 74.7 45.081 74.7 46.081C74.7 47.481 74.5 48.481 74 49.081C73.7 49.581 73.3 49.881 73 49.981C72.7 50.081 72.4 50.181 72.1 50.281C71.9 50.381 71.5999 50.381 71.2999 50.381C70.7999 50.381 70.2 50.481 69.4 50.481H69V52.681ZM69 47.781H69.4C69.6 47.781 69.8 47.781 69.9 47.681C70 47.581 70.1 47.481 70.2 47.181C70.3 46.881 70.2999 46.581 70.2999 46.081C70.2999 45.581 70.2 45.281 70.1 44.981C70 44.781 69.8999 44.581 69.7999 44.581C69.6999 44.481 69.6 44.481 69.5 44.481H69V47.781Z" fill="white"/>
<path d="M61.2002 47.6809C60.8002 42.6809 63.8002 38.1809 68.1002 37.1809C67.7002 37.1809 67.2002 37.1809 66.8002 37.1809C61.8002 37.5809 58.2002 42.3809 58.6002 47.9809C59.0002 53.5809 63.4002 57.6809 68.4002 57.2809C68.8002 57.2809 69.3002 57.1809 69.7002 57.0809C65.3002 56.6809 61.6002 52.7809 61.2002 47.6809Z" fill="#D35939"/>
<path d="M69 59.1809C62.4 59.1809 57 53.7809 57 47.1809C57 40.5809 62.4 35.1809 69 35.1809C75.6 35.1809 81 40.5809 81 47.1809C81 53.7809 75.6 59.1809 69 59.1809ZM69 37.4809C63.7 37.4809 59.3 41.8809 59.3 47.1809C59.3 52.4809 63.7 56.8809 69 56.8809C74.3 56.8809 78.7 52.4809 78.7 47.1809C78.7 41.8809 74.4 37.4809 69 37.4809Z" fill="#323063"/>
</svg>
